<svg width="50" height="50" viewBox="0 0 50 50" fill="none" xmlns="http://www.w3.org/2000/svg">
<rect x="0.5" y="0.5" width="49" height="49" rx="24.5" stroke="white" stroke-opacity="0.25"/>
<path d="M23.3927 24.6848C23.3927 24.6848 24.8917 24.5735 24.8917 22.8157C24.8917 21.0578 23.6653 20.1999 22.1118 20.1999H17V30.0234H22.1118C22.1118 30.0234 25.2324 30.122 25.2324 27.124C25.2324 27.124 25.3685 24.6848 23.3927 24.6848V24.6848ZM21.7439 21.9459H22.1118C22.1118 21.9459 22.8067 21.9459 22.8067 22.968C22.8067 23.99 22.3981 24.1382 21.9345 24.1382H19.2523V21.9459H21.7439V21.9459ZM21.9674 28.2775H19.2523V25.6523H22.1118C22.1118 25.6523 23.1475 25.6387 23.1475 27.0013C23.1475 28.1504 22.374 28.2688 21.9674 28.2775V28.2775ZM29.3943 22.6993C25.6165 22.6993 25.6198 26.4738 25.6198 26.4738C25.6198 26.4738 25.3606 30.2289 29.3943 30.2289C29.3943 30.2289 32.7557 30.421 32.7557 27.6167H31.027C31.027 27.6167 31.0846 28.6727 29.452 28.6727C29.452 28.6727 27.723 28.7886 27.723 26.9637H32.8133C32.8133 26.9636 33.3703 22.6993 29.3943 22.6993ZM27.704 25.6523C27.704 25.6523 27.9151 24.1381 29.4327 24.1381C30.95 24.1381 30.931 25.6523 30.931 25.6523H27.704ZM31.3337 21.9883H27.2808V20.7786H31.3337V21.9883Z" fill="white"/>
</svg>
