<svg width="50" height="50" viewBox="0 0 50 50" fill="none" xmlns="http://www.w3.org/2000/svg">
<rect x="0.5" y="0.5" width="49" height="49" rx="24.5" stroke="white" stroke-opacity="0.25"/>
<path d="M17.7998 19.3929C17.7998 18.9312 17.962 18.5502 18.2863 18.2501C18.6106 17.9499 19.0322 17.7999 19.5512 17.7999C20.0608 17.7999 20.4732 17.9476 20.7882 18.2432C21.1125 18.5479 21.2747 18.945 21.2747 19.4345C21.2747 19.8778 21.1172 20.2472 20.8021 20.5427C20.4778 20.8475 20.0515 20.9999 19.5234 20.9999H19.5095C18.9998 20.9999 18.5875 20.8475 18.2724 20.5427C17.9573 20.238 17.7998 19.8547 17.7998 19.3929ZM17.9805 31.5141V22.2605H21.0662V31.5141H17.9805ZM22.7759 31.5141H25.8616V26.347C25.8616 26.0238 25.8987 25.7745 25.9728 25.599C26.1025 25.285 26.2994 25.0195 26.5635 24.8025C26.8276 24.5854 27.1589 24.4769 27.5573 24.4769C28.5952 24.4769 29.1141 25.1742 29.1141 26.5687V31.5141H32.1998V26.2085C32.1998 24.8417 31.8755 23.8051 31.2268 23.0986C30.5782 22.3921 29.721 22.0388 28.6554 22.0388C27.46 22.0388 26.5288 22.5514 25.8616 23.5765V23.6042H25.8477L25.8616 23.5765V22.2605H22.7759C22.7944 22.556 22.8037 23.4749 22.8037 25.0172C22.8037 26.5595 22.7944 28.7251 22.7759 31.5141Z" fill="white"/>
</svg>
