<?xml version="1.0" encoding="UTF-8"?>
<svg id="Layer_2" data-name="Layer 2" xmlns="http://www.w3.org/2000/svg" viewBox="0 0 498.36 132.03">
  <defs>
    <style>
      .cls-1 {
        opacity: .8;
      }

      .cls-1, .cls-2 {
        fill: #fff;
      }
    </style>
  </defs>
  <g id="Right">
    <g>
      <g>
        <g>
          <path class="cls-2" d="M214.3,60.06l-12.72-18.87h-6.49v18.87h-10.78V3.46h20.22c14.74,0,21.56,7.92,21.56,18.87,0,7.92-4.63,15.5-12.97,18.03l14.32,19.71h-13.14ZM195.09,30.41h10.78c5.22,0,9.43-3.37,9.43-8.09,0-5.31-4.21-8.09-9.43-8.09h-10.78v16.17Z"/>
          <path class="cls-2" d="M245.64,14.24v12.13h20.22v10.78h-20.22v12.13h24.26v10.78h-35.04V3.46h35.04v10.78h-24.26Z"/>
          <path class="cls-2" d="M322.46,43.21c0,10.11-7.75,18.19-22.74,18.19s-22.07-8.42-23.08-9.43l5.39-9.43c4.97,5.64,12.47,8.09,17.86,8.09,7.5,0,11.79-2.78,11.79-6.74s-4.04-5.98-11.46-7.08c-16.09-2.44-21.56-8.42-21.56-17.01,0-9.43,7.66-17.69,21.73-17.69,2.53,0,11.12.17,19.37,6.91l-4.55,9.27c-1.26-1.1-6.82-5.39-14.99-5.39-5.73,0-10.78,1.6-10.78,6.15,0,3.87,3.28,5.31,11.46,6.65,12.38,2.02,21.56,5.39,21.56,17.52Z"/>
          <path class="cls-2" d="M387.16,31.76c0,16.34-13.31,29.65-29.65,29.65s-29.65-13.31-29.65-29.65,13.31-29.65,29.65-29.65,29.65,13.31,29.65,29.65ZM376.38,31.76c0-10.44-8.42-18.87-18.87-18.87s-18.87,8.42-18.87,18.87,8.42,18.87,18.87,18.87,18.87-8.42,18.87-18.87Z"/>
          <path class="cls-2" d="M444.44,3.46v56.6h-10.78l-28.3-39.08v39.08h-10.78V3.46h10.78l28.3,39.08V3.46h10.78Z"/>
          <path class="cls-2" d="M498.36,42.54c0,11.2-10.02,18.87-22.24,18.87s-22.24-7.67-22.24-18.87c0-5.98,2.86-10.87,7.33-14.24-2.86-2.44-4.63-5.9-4.63-10.02,0-9.27,8.76-16.17,19.54-16.17s19.46,6.91,19.46,16.17c0,4.13-1.77,7.5-4.63,10.02,4.55,3.28,7.41,8.25,7.41,14.24ZM487.58,41.87c0-4.8-5.14-8.76-11.46-8.76s-11.46,3.96-11.46,8.76,5.14,8.76,11.46,8.76,11.46-3.96,11.46-8.76ZM467.36,18.96c0,3.37,3.88,6.06,8.76,6.06s8.76-2.7,8.76-6.06-3.88-6.06-8.76-6.06-8.76,2.69-8.76,6.06Z"/>
        </g>
        <g>
          <polygon class="cls-2" points="229.16 84.75 229.16 129.91 223.5 129.91 223.5 93.33 208.58 120.26 204.89 120.26 189.97 93.33 189.97 129.91 184.31 129.91 184.31 84.75 190.43 84.75 206.7 113.26 206.73 113.19 206.77 113.26 223.04 84.75 229.16 84.75"/>
          <polygon class="cls-2" points="241.32 129.92 241.32 84.75 270.63 84.75 270.63 90.2 247.18 90.2 247.18 104.68 268.21 104.68 268.21 110.19 247.18 110.19 247.18 124.47 270.63 124.47 270.63 129.92 241.32 129.92"/>
          <path class="cls-2" d="M280.65,129.92v-45.17h16.83c13.77,0,22.32,8.65,22.32,22.58s-8.55,22.58-22.32,22.58h-16.83ZM286.51,124.4h10.97c9.96,0,16.4-6.67,16.4-17s-6.44-17.14-16.4-17.14h-10.97v34.14Z"/>
          <rect class="cls-2" x="329.22" y="84.75" width="5.86" height="45.17"/>
          <path class="cls-2" d="M382.29,129.92l-4.42-10.94h-23.57l-4.42,10.94h-6.18l18.9-45.17h6.99l18.9,45.17h-6.19ZM356.12,113.87h19.91l-9.96-24.14-9.96,24.14Z"/>
        </g>
      </g>
      <g>
        <path class="cls-2" d="M122.22,0c-20.78,0-37.63,16.85-37.63,37.63,0,9.44,3.49,18.07,9.23,24.68,7.33-7.16,17.34-11.58,28.4-11.58s21.07,4.42,28.4,11.58c5.75-6.61,9.23-15.23,9.23-24.68,0-20.78-16.85-37.63-37.63-37.63ZM122.22,50.72c-7.22,0-13.09-5.87-13.09-13.09s5.87-13.09,13.09-13.09,13.09,5.87,13.09,13.09-5.87,13.09-13.09,13.09Z"/>
        <path class="cls-2" d="M150.62,62.31c-6.9,7.93-17.06,12.95-28.4,12.95s-21.5-5.02-28.4-12.95c-7.56,7.38-12.25,17.68-12.25,29.07,0,22.45,18.2,40.65,40.65,40.65s40.65-18.2,40.65-40.65c0-11.4-4.7-21.69-12.25-29.07ZM122.22,107.49c-8.88,0-16.11-7.23-16.11-16.11s7.23-16.11,16.11-16.11,16.11,7.23,16.11,16.11-7.23,16.11-16.11,16.11Z"/>
        <path class="cls-1" d="M122.22,75.26c11.34,0,21.5-5.02,28.4-12.95-7.33-7.16-17.34-11.58-28.4-11.58s-21.07,4.42-28.4,11.58c6.9,7.93,17.06,12.95,28.4,12.95Z"/>
        <path class="cls-2" d="M80.28,131.12h-35.7l-14.56-19.67s-7.88-11.31-30.01-11.31h29.51c8.46,0,16.43-2.13,23.42-5.87v-.02s.02,0,.04-.02c-8.47-11.42-21.69-18.33-35.85-18.79-.5-.02-1.01-.02-1.52-.02h13.94c13.75,0,24.94-11.18,24.94-24.94s-11.18-24.95-24.94-24.95H9.3V.81h20.24c27.38,0,49.66,22.28,49.66,49.67,0,18.91-10.62,35.39-26.22,43.77l27.29,36.86Z"/>
        <path class="cls-1" d="M52.97,94.23s-.02,0-.04.02v.02c-6.98,3.74-14.96,5.87-23.42,5.87H0v-24.72h15.6c.5,0,1.01,0,1.52.02,14.17.47,27.38,7.37,35.85,18.79Z"/>
      </g>
    </g>
  </g>
</svg>