<?xml version="1.0" encoding="UTF-8"?>
<svg id="Layer_2" data-name="Layer 2" xmlns="http://www.w3.org/2000/svg" viewBox="0 0 334.27 98.84">
  <defs>
    <style>
      .cls-1 {
        fill: #6ea493;
      }

      .cls-2 {
        fill: #183f2d;
      }

      .cls-3 {
        fill: #447765;
      }

      .cls-4 {
        fill: #091e18;
      }

      .cls-5 {
        fill: #143e35;
      }
    </style>
  </defs>
  <g id="Layer_1-2" data-name="Layer 1">
    <g>
      <g>
        <path class="cls-1" d="M52.04,0C44.73,0,37.91,2.9,32.84,8.15c-2.23,2.31-3.99,4.95-5.25,7.81H.01V0h52.03Z"/>
        <path class="cls-3" d="M37.29,68.13c0-8.13,6.62-14.75,14.75-14.75-7.82,0-14.86-3.38-19.75-8.75-6.7,5.64-10.96,14.08-10.96,23.5,0,5.34,1.37,10.37,3.78,14.74h26.93c-8.13,0-14.75-6.61-14.75-14.74Z"/>
        <path class="cls-1" d="M62.76,26.69c0,5.91-4.81,10.72-10.73,10.72,7.51,0,14.4,2.72,19.74,7.21,3.85-4.24,6.36-9.72,6.85-15.76-6.13-7.84-15.66-12.9-26.36-12.9h-.23c5.91,0,10.73,4.81,10.73,10.72Z"/>
        <path class="cls-5" d="M52.04,98.84H.01v-15.97h25.09c5.23,9.51,15.34,15.97,26.93,15.97Z"/>
        <path class="cls-3" d="M101.68,49.41c0,27.15-21.44,49.02-48.99,49.41,16.63-.35,30.05-13.99,30.05-30.7,0-1.45-.11-2.88-.3-4.28,2.1-4.37,3.28-9.26,3.28-14.43,0-7.74-2.65-14.88-7.09-20.55.06-.72.1-1.44.1-2.17C78.73,12.05,66.88.13,52.28,0c27.2.06,49.4,22.2,49.4,49.41Z"/>
        <path class="cls-3" d="M71.78,44.63c-4.88,5.37-11.92,8.76-19.74,8.76,8.13,0,14.75,6.61,14.75,14.75s-6.62,14.74-14.75,14.74h.23c13.28,0,24.78-7.78,30.18-19.02-1.08-7.68-5-14.45-10.67-19.22Z"/>
        <path class="cls-2" d="M52.03,37.42c-7.51,0-14.4,2.72-19.75,7.21,4.89,5.37,11.93,8.75,19.75,8.75s14.86-3.38,19.74-8.76c-5.34-4.5-12.23-7.21-19.74-7.21Z"/>
        <rect class="cls-5" x="0" y="23.63" width="15.99" height="51.7"/>
        <path class="cls-4" d="M82.75,68.13c0-1.45-.11-2.88-.3-4.28-5.4,11.24-16.89,19.02-30.18,19.02h-27.16c5.23,9.51,15.34,15.97,26.93,15.97,16.93,0,30.71-13.78,30.71-30.71Z"/>
        <path class="cls-5" d="M78.73,26.69c0,.73-.04,1.45-.1,2.17-6.13-7.84-15.66-12.9-26.36-12.9h-24.68c1.26-2.86,3.02-5.51,5.25-7.81C37.91,2.9,44.73,0,52.04,0h.23c14.61.13,26.46,12.05,26.46,26.69Z"/>
        <path class="cls-1" d="M41.31,26.69c0-5.92,4.8-10.72,10.73-10.72h-24.44c-1.47,3.34-2.25,6.98-2.25,10.72,0,6.9,2.63,13.2,6.94,17.94,5.34-4.5,12.23-7.21,19.75-7.21-5.91,0-10.73-4.81-10.73-10.72Z"/>
      </g>
      <path class="cls-5" d="M125.64,32.14h7.47v36.55h-7.47v-36.55Z"/>
      <path class="cls-5" d="M138.54,32.14h12.22c10.97,0,18.17,6.84,18.17,18.17s-7.26,18.38-18.17,18.38h-12.22v-36.55ZM146,38.51v23.81h4.54c7.26,0,10.65-4.28,10.65-12.01s-3.39-11.8-10.65-11.8h-4.54Z"/>
      <path class="cls-5" d="M173.2,59.34c0-3.92,2.09-6.63,5.01-8.2-2.51-1.72-4.18-4.07-4.18-7.89,0-6.21,5.07-10.24,12.06-10.24,8.3,0,12.22,4.33,12.22,9.71,0,3.45-1.62,6.06-4.33,7.83,3.34,1.88,5.22,4.39,5.22,8.04,0,6.58-4.91,10.71-13.16,10.71-7.31,0-12.85-3.5-12.85-9.97ZM191.85,59.19c0-3.03-2.56-3.97-7.36-5.38-.26-.05-.47-.16-.73-.21-1.78,1.1-3.19,2.77-3.19,5.17,0,3.13,2.56,4.8,5.74,4.8,3.34,0,5.54-1.51,5.54-4.39ZM188.4,48.27c1.62-1.31,2.66-2.87,2.66-5.12,0-2.61-1.78-4.39-4.96-4.39-2.77,0-4.75,1.57-4.75,4.07,0,2.82,2.09,4.02,5.9,5.12.42.1.78.21,1.15.31Z"/>
      <path class="cls-5" d="M245.58,32.14v36.55h-2.45v-26.69c0-2.04.05-3.76.1-5.17-3.6,8.36-8.15,16.87-14.26,26.48h-2.35c-6.11-9.61-10.65-18.17-14.31-26.53.1,1.46.16,3.29.16,5.22v26.69h-2.4v-36.55h2.61c3.86,9.56,9.14,18.96,15.2,28.77,6.06-9.82,11.18-19.22,15.04-28.77h2.66Z"/>
      <path class="cls-5" d="M264.33,69.32c-8.15,0-13.32-4.7-13.32-13.79,0-7.89,4.28-13.63,11.75-13.63,7,0,10.44,5.12,10.44,11.23,0,1.04-.05,1.88-.16,2.82h-19.53c.16,7.57,4.39,11.12,10.91,11.12,2.72,0,5.54-.68,8.04-1.78l.57,2.14c-2.66,1.31-5.48,1.88-8.72,1.88ZM253.57,53.96h17.08c.05-.42.05-.68.05-1.15,0-4.33-2.19-8.72-7.94-8.72s-8.72,4.07-9.19,9.87Z"/>
      <path class="cls-5" d="M290.82,69.32c-7.62,0-12.74-4.86-12.74-13.32s4.65-14.1,13.47-14.1c1.93,0,3.86.42,5.43,1.05v-11.85l2.45-.16v36.09c-2.04,1.41-4.91,2.3-8.62,2.3ZM290.77,67.07c2.45,0,4.96-.57,6.21-1.46v-20.26c-1.57-.73-3.55-1.25-5.38-1.25-7.21,0-10.97,4.49-10.97,11.91,0,6.89,4.02,11.07,10.13,11.07Z"/>
      <path class="cls-5" d="M306.27,34.38c0-.99.68-1.88,1.93-1.88,1.15,0,1.83.89,1.83,1.88,0,1.1-.68,1.93-1.83,1.93-1.25,0-1.93-.84-1.93-1.93ZM309.4,68.69h-2.45v-26.16h2.45v26.16Z"/>
      <path class="cls-5" d="M324.51,69.32c-6.32,0-9.61-3.08-9.61-7.57,0-5.8,4.65-7.89,10.03-7.89,2.35,0,4.75.31,6.89.78v-3.55c0-4.33-2.25-7-7.36-7-2.72,0-5.22.63-7.1,1.41l-.68-2.14c1.93-.84,4.91-1.46,7.83-1.46,6.47,0,9.76,3.19,9.76,9.24v15.67c-2.35,1.46-5.33,2.51-9.76,2.51ZM331.82,65.45v-8.72c-1.93-.47-4.02-.84-6.74-.84-4.44,0-7.68,1.41-7.68,5.85,0,3.6,2.72,5.43,7.21,5.43,3.71,0,5.9-.89,7.21-1.72Z"/>
    </g>
  </g>
</svg>