<?xml version="1.0" encoding="UTF-8"?>
<svg id="Layer_2" data-name="Layer 2" xmlns="http://www.w3.org/2000/svg" viewBox="0 0 299.44 119.82">
  <defs>
    <style>
      .cls-1 {
        fill: #e9bb9b;
      }

      .cls-1, .cls-2 {
        opacity: .9;
      }

      .cls-1, .cls-2, .cls-3 {
        isolation: isolate;
      }

      .cls-4 {
        fill: #1f3060;
      }

      .cls-2, .cls-3, .cls-5 {
        fill: #f9a265;
      }

      .cls-3 {
        opacity: .7;
      }
    </style>
  </defs>
  <g id="Layer_1-2" data-name="Layer 1">
    <g>
      <g>
        <path class="cls-4" d="M10.98,56.45c-6.72,5.92-10.98,14.58-10.98,24.22,0,17.77,14.46,32.23,32.23,32.23h5.29v-16.04h-5.29c-8.93,0-16.19-7.27-16.19-16.19s7.25-16.18,16.16-16.2h5.2c8.91.02,16.16,7.28,16.16,16.2h16.04c0-9.64-4.26-18.3-10.98-24.22,6.73-5.92,10.98-14.57,10.98-24.21,0-17.78-14.46-32.24-32.23-32.24h-5.13C14.46,0,0,14.46,0,32.23,0,41.87,4.26,50.54,10.98,56.45M32.23,16.04h5.13c8.93,0,16.19,7.26,16.19,16.19s-7.25,16.17-16.16,16.19h-5.2c-8.91-.02-16.16-7.28-16.16-16.19s7.26-16.19,16.19-16.19"/>
        <rect class="cls-1" x="37.52" y="96.86" width="16.04" height="16.04"/>
        <rect class="cls-3" x="53.56" y="80.67" width="16.04" height="16.04"/>
        <rect class="cls-2" x="64.59" y="96.7" width="10.53" height="10.53"/>
        <rect class="cls-5" x="68.65" y="109.93" width="8.41" height="8.41"/>
        <rect class="cls-3" x="53.56" y="107.23" width="12.59" height="12.59"/>
      </g>
      <g>
        <path class="cls-4" d="M121.74,66.45h-5.29v16.71h-10.82V30.24h16.11c6.61,0,11.81,1.57,15.62,4.73,3.8,3.16,5.7,7.62,5.7,13.41s-1.89,10.26-5.66,13.38c-3.79,3.12-9,4.68-15.66,4.68ZM121.51,39.47h-5.06v17.85h5.06c3.42,0,6.03-.69,7.79-2.06,1.75-1.36,2.64-3.65,2.64-6.89s-.88-5.52-2.64-6.86c-1.77-1.37-4.37-2.06-7.79-2.06h0Z"/>
        <path class="cls-4" d="M155.68,39.39c-1.92,0-3.4-.52-4.47-1.59-1.05-1.06-1.59-2.47-1.59-4.24s.53-3.17,1.59-4.24c1.06-1.06,2.54-1.59,4.47-1.59s3.33.52,4.38,1.59c1.06,1.06,1.6,2.47,1.6,4.24s-.53,3.17-1.6,4.24c-1.05,1.06-2.52,1.59-4.38,1.59ZM160.89,44.52v38.64h-10.44v-38.64h10.44Z"/>
        <path class="cls-4" d="M192.04,83.16c-1.42-3.79-4.26-8.47-8.54-14.06-3.63,5.25-5.84,9.93-6.64,14.06h-10.13c1.75-7.3,5.59-14.06,11.5-20.27-2.87-3.17-5.23-6.16-7.07-8.97-1.84-2.8-3.29-5.93-4.34-9.41h11.27c.91,3.18,3.45,7.47,7.64,12.86,3.38-5.05,5.29-9.33,5.75-12.86h10.59c-1.77,7.12-5.42,13.52-10.96,19.2,5.59,6.32,9.67,12.79,12.25,19.43h-11.29Z"/>
        <path class="cls-4" d="M237.02,81.5c-3.79,1.71-8.19,2.57-13.23,2.57-6.16,0-11.11-1.82-14.86-5.47-3.75-3.67-5.63-8.58-5.63-14.78s1.74-10.87,5.22-14.59c3.47-3.74,7.99-5.6,13.54-5.6,4.94,0,8.91,1.59,11.91,4.76,3,3.18,4.49,7.32,4.49,12.4,0,1.8-.1,3.73-.3,5.75h-23.9c.96,5.84,4.49,8.77,10.59,8.77,3.53,0,7.03-.74,10.52-2.2l1.67,8.4h-.01ZM222.05,51.94c-2.17,0-3.94.73-5.34,2.18-1.39,1.46-2.25,3.47-2.61,6.05h14.36v-.91c0-2.17-.57-3.93-1.71-5.3s-2.71-2.03-4.72-2.03h.01Z"/>
        <path class="cls-4" d="M253.34,31.53v37.65c0,4.17,1.36,6.27,4.08,6.27.81,0,1.54-.07,2.19-.23l.76,8.25c-1.91.39-3.68.59-5.29.59-8.12,0-12.17-4.9-12.17-14.74V31.53h10.44-.01Z"/>
        <path class="cls-2" d="M280.39,84.06c-5.49,0-9.97-1.27-13.42-3.81-3.46-2.54-5.18-6.09-5.18-10.62,0-5.34,2.42-9.29,7.25-11.87-4.03-2.78-6.04-6.57-6.04-11.42,0-4.44,1.62-8.01,4.88-10.73s7.45-4.08,12.58-4.08c5.75,0,10.13,1.31,13.15,3.93,3.03,2.61,4.54,5.99,4.54,10.13,0,4.84-2.09,8.63-6.28,11.35,5.05,2.82,7.56,6.69,7.56,11.64s-1.68,8.57-5.07,11.35c-3.38,2.76-8.03,4.15-13.98,4.15h0ZM280.76,75.76c2.47,0,4.42-.56,5.86-1.67,1.44-1.1,2.15-2.66,2.15-4.68s-.77-3.52-2.35-4.54c-1.56-1-4.33-2.08-8.31-3.24-.1-.06-.27-.1-.5-.16-.23-.05-.41-.08-.57-.15-3.07,1.92-4.61,4.4-4.61,7.49,0,2.17.79,3.87,2.35,5.09,1.56,1.23,3.56,1.86,5.98,1.86h0ZM282.13,53.15c.4.1.96.24,1.66.45,2.58-2.07,3.86-4.54,3.86-7.41,0-1.92-.63-3.46-1.89-4.61-1.27-1.16-3.03-1.74-5.3-1.74-2.01,0-3.67.53-4.95,1.59-1.28,1.06-1.92,2.5-1.92,4.32s.69,3.4,2.05,4.49c1.36,1.08,3.53,2.06,6.5,2.9h0Z"/>
      </g>
    </g>
  </g>
</svg>