<?xml version="1.0" encoding="UTF-8"?>
<svg id="Layer_2" data-name="Layer 2" xmlns="http://www.w3.org/2000/svg" viewBox="0 0 2090.11 233.14">
  <defs>
    <style>
      .cls-1 {
        fill: #080909;
      }

      .cls-2 {
        fill: #f9a265;
      }
    </style>
  </defs>
  <g id="Right">
    <g>
      <g>
        <path class="cls-1" d="M601.69,45.68h-64.08v165.9h-30.68V45.68h-64.35v-26.88h159.11v26.88Z"/>
        <path class="cls-1" d="M773.97,18.8v192.78h-30.68v-84.99h-85.39v84.99h-30.41V18.8h30.41v80.64h85.39V18.8h30.68Z"/>
        <path class="cls-1" d="M919.53,184.7v26.88h-117.28V18.8h114.84v26.88h-84.42v54.85h71.12v25.26h-71.12v58.92h86.87Z"/>
        <path class="cls-1" d="M1262.57,212.94c-12.67,0-24.53-2.62-35.57-7.87-11.05-5.25-20.68-12.49-28.92-21.73-8.24-9.23-14.67-19.73-19.28-31.5-4.62-11.76-6.93-24.26-6.93-37.47s2.31-25.61,6.93-37.2c4.61-11.58,11.04-21.9,19.28-30.95,8.23-9.05,17.92-16.1,29.05-21.18,11.13-5.06,23.31-7.6,36.52-7.6,18.28,0,33.71,3.85,46.29,11.54,12.58,7.69,22.04,17.87,28.38,30.55l-23.35,16.83c-5.07-10.49-12.26-18.37-21.58-23.62-9.33-5.25-19.51-7.88-30.55-7.88-9.06,0-17.29,1.9-24.71,5.71-7.42,3.8-13.81,9-19.14,15.61-5.34,6.61-9.37,14.12-12.08,22.54-2.72,8.42-4.07,17.24-4.07,26.48,0,9.77,1.53,18.92,4.62,27.42,3.08,8.51,7.42,15.98,13.03,22.4,5.61,6.43,12.22,11.45,19.82,15.07,7.6,3.62,15.84,5.43,24.71,5.43,10.5,0,20.5-2.67,30-8.01,9.5-5.34,18.42-13.35,26.75-24.03v30.95c-16.83,19.01-36.56,28.51-59.19,28.51ZM1318.78,136.64h-40.46v-22.54h65.98v97.48h-25.53v-74.94Z"/>
        <path class="cls-1" d="M1379.06,211.58V18.8h83.9c8.69,0,16.65,1.81,23.89,5.43,7.24,3.62,13.53,8.42,18.87,14.39,5.34,5.97,9.5,12.67,12.49,20.1,2.99,7.42,4.48,15.03,4.48,22.81,0,8.51-1.54,16.65-4.61,24.43-3.08,7.79-7.47,14.49-13.17,20.09-5.7,5.62-12.36,9.69-19.96,12.22l45.35,73.31h-34.21l-41.81-67.07h-44.8v67.07h-30.41ZM1409.47,117.64h53.22c5.61,0,10.59-1.63,14.93-4.89,4.34-3.26,7.78-7.64,10.32-13.17,2.53-5.52,3.8-11.54,3.8-18.05s-1.45-12.72-4.34-18.06c-2.9-5.34-6.65-9.64-11.27-12.89-4.62-3.26-9.64-4.89-15.07-4.89h-51.59v71.96Z"/>
        <path class="cls-1" d="M1638.09,212.94c-13.94,0-26.52-2.71-37.74-8.14-11.23-5.43-20.91-12.81-29.05-22.13-8.14-9.32-14.44-19.82-18.87-31.5-4.44-11.68-6.65-23.67-6.65-35.98s2.35-25.11,7.06-36.79c4.71-11.67,11.22-22.08,19.55-31.22,8.33-9.14,18.15-16.38,29.46-21.73,11.31-5.34,23.58-8,36.79-8s26.29,2.81,37.61,8.41c11.31,5.62,20.99,13.13,29.05,22.54,8.05,9.42,14.3,19.92,18.73,31.5,4.43,11.58,6.65,23.44,6.65,35.56,0,12.86-2.31,25.12-6.92,36.79-4.62,11.68-11.09,22.09-19.42,31.23-8.33,9.14-18.15,16.33-29.46,21.59-11.31,5.25-23.58,7.87-36.79,7.87ZM1576.73,115.19c0,9.06,1.45,17.83,4.34,26.34,2.89,8.51,7.01,16.07,12.35,22.67,5.34,6.61,11.81,11.81,19.42,15.61,7.6,3.8,16.11,5.71,25.52,5.71s18.46-1.99,26.07-5.98c7.6-3.97,13.98-9.37,19.14-16.16,5.16-6.79,9.1-14.39,11.81-22.8,2.72-8.42,4.07-16.88,4.07-25.39,0-9.05-1.4-17.79-4.21-26.2-2.81-8.42-6.92-15.93-12.35-22.54-5.43-6.6-11.9-11.81-19.41-15.61-7.51-3.8-15.88-5.7-25.12-5.7-9.77,0-18.46,1.99-26.07,5.97-7.6,3.98-14.03,9.32-19.28,16.02-5.25,6.7-9.28,14.21-12.08,22.54-2.81,8.33-4.21,16.83-4.21,25.52Z"/>
        <path class="cls-1" d="M1837.16,212.94c-15.39,0-28.38-2.62-38.96-7.87-10.59-5.25-19.1-12.4-25.53-21.45-6.43-9.05-11.13-19.36-14.12-30.95-2.99-11.58-4.48-23.62-4.48-36.11V18.8h30.41v97.75c0,8.87.9,17.42,2.72,25.66,1.81,8.23,4.7,15.61,8.69,22.13,3.98,6.51,9.37,11.67,16.16,15.47,6.79,3.8,15.16,5.71,25.11,5.71s18.6-1.95,25.39-5.84c6.79-3.89,12.12-9.14,16.02-15.75,3.89-6.61,6.74-13.98,8.56-22.13,1.81-8.15,2.71-16.56,2.71-25.26V18.8h30.68v97.75c0,13.21-1.59,25.66-4.75,37.33-3.17,11.68-8.06,21.91-14.66,30.68-6.61,8.78-15.17,15.71-25.66,20.77-10.5,5.07-23.26,7.6-38.29,7.6Z"/>
        <path class="cls-1" d="M1949.46,210.9V18.12h80.92c8.69,0,16.65,1.81,23.89,5.43,7.24,3.62,13.58,8.42,19.01,14.39,5.43,5.97,9.59,12.67,12.49,20.1,2.89,7.42,4.34,15.03,4.34,22.81,0,10.68-2.4,20.86-7.2,30.54-4.8,9.69-11.59,17.52-20.36,23.49-8.78,5.97-18.96,8.96-30.55,8.96h-52.13v67.07h-30.41ZM1979.88,116.96h50.23c5.79,0,10.86-1.59,15.21-4.76,4.35-3.16,7.74-7.46,10.18-12.89,2.45-5.43,3.66-11.58,3.66-18.46s-1.45-13.31-4.34-18.74c-2.9-5.43-6.65-9.63-11.27-12.62-4.62-2.99-9.64-4.48-15.07-4.48h-48.6v71.96Z"/>
        <path class="cls-1" d="M1124.59,155.65c0,12.07-3.24,22.57-9.71,31.53-6.47,8.95-15.09,15.95-25.84,20.98-10.76,5.02-22.52,7.53-35.27,7.53s-24.75-2.65-35.41-7.95c-10.67-5.3-19.14-12.57-25.43-21.8-6.29-9.23-9.43-19.79-9.43-31.67,0-7.3,1.55-13.93,4.65-19.87,3.1-5.93,6.97-11.05,11.62-15.35,4.65-4.29,9.34-7.63,14.08-10.01-4.37-2.18-8.43-5.1-12.17-8.75-3.74-3.64-6.7-7.83-8.89-12.58-2.19-4.74-3.28-9.75-3.28-15.04,0-8.56,1.91-16.23,5.74-22.97,3.83-6.74,8.93-12.44,15.31-17.09,6.38-4.65,13.35-8.11,20.92-10.39,7.56-2.28,15.08-3.42,22.56-3.42s14.77,1.14,22.42,3.42c7.65,2.28,14.67,5.7,21.06,10.25,6.38,4.56,11.53,10.17,15.45,16.82,3.92,6.66,5.88,14.36,5.88,23.11,0,5.11-1.14,10.07-3.42,14.9-2.28,4.83-5.29,9.12-9.02,12.86-3.74,3.74-7.98,6.7-12.72,8.88,5.29,2.74,10.3,6.31,15.04,10.69,4.74,4.39,8.57,9.6,11.48,15.63,2.92,6.03,4.38,12.79,4.38,20.29ZM1087.4,153.48c0-4.76-.91-8.93-2.74-12.51-1.82-3.57-4.37-6.59-7.66-9.06-3.28-2.47-6.93-4.35-10.94-5.64-4.01-1.28-8.12-1.92-12.31-1.92-5.84,0-11.26,1.2-16.27,3.57-5.02,2.39-9.07,5.78-12.17,10.17-3.1,4.39-4.65,9.52-4.65,15.38,0,4.39.96,8.38,2.87,11.95,1.92,3.57,4.47,6.64,7.66,9.2,3.19,2.56,6.74,4.53,10.67,5.91,3.92,1.38,7.97,2.06,12.17,2.06,5.83,0,11.3-1.28,16.41-3.85,5.1-2.56,9.2-6.04,12.31-10.44,3.1-4.39,4.65-9.34,4.65-14.84ZM1026.69,73.77c0,4.92,1.37,9.12,4.1,12.58,2.74,3.46,6.24,6.06,10.53,7.79,4.28,1.73,8.52,2.6,12.72,2.6s8.61-.91,12.72-2.73c4.1-1.82,7.56-4.42,10.39-7.79,2.82-3.37,4.24-7.61,4.24-12.72,0-4.55-1.28-8.48-3.83-11.76-2.55-3.28-5.88-5.83-9.98-7.65-4.1-1.82-8.71-2.74-13.81-2.74-4.74,0-9.21.92-13.4,2.74-4.2,1.82-7.52,4.42-9.98,7.79-2.46,3.37-3.69,7.34-3.69,11.9Z"/>
      </g>
      <path class="cls-2" d="M362.66,0h-12.95c0,40.51-14.38,77.73-38.31,106.81-.61-.63-1.22-1.27-1.85-1.89-5.54-5.54-11.38-10.67-17.47-15.39,19.83-24.48,31.73-55.64,31.73-89.53h-12.95c0,31.07-11,59.61-29.3,81.96-7.36-4.9-15.03-9.23-22.97-12.98,16.39-18.33,26.37-42.51,26.37-68.98h-12.95c0,24.75-9.97,47.21-26.11,63.59-9.83-3.74-20.01-6.61-30.42-8.59,18.37-11.44,30.62-31.82,30.62-55.01h-12.95c0,28.56-23.22,51.79-51.77,51.81-.01,0-.02,0-.03,0s-.02,0-.03,0c-28.55-.02-51.77-23.25-51.77-51.81h-12.95c0,23.19,12.25,43.57,30.62,55.01-10.42,1.97-20.59,4.85-30.42,8.59-16.13-16.38-26.11-38.84-26.11-63.59h-12.95c0,26.47,9.98,50.65,26.37,68.98-7.94,3.74-15.62,8.08-22.97,12.98C62.8,59.61,51.81,31.07,51.81,0h-12.95c0,33.89,11.9,65.04,31.73,89.53-6.09,4.72-11.93,9.85-17.47,15.39-.63.62-1.23,1.26-1.85,1.89C27.34,77.73,12.95,40.51,12.95,0H0c0,43.13,14.97,83.96,42.43,116.57C14.97,149.18,0,190,0,233.14h12.95c0-40.51,14.38-77.73,38.31-106.81.61.63,1.22,1.27,1.85,1.89,5.54,5.54,11.38,10.67,17.47,15.39-19.83,24.48-31.73,55.64-31.73,89.53h12.95c0-31.07,11-59.61,29.3-81.96,7.36,4.9,15.03,9.23,22.97,12.98-16.39,18.33-26.37,42.51-26.37,68.98h12.95c0-24.75,9.97-47.21,26.11-63.59,9.83,3.74,20.01,6.61,30.42,8.59-18.37,11.44-30.62,31.82-30.62,55.01h12.95c0-28.56,23.22-51.79,51.77-51.81.01,0,.02,0,.03,0s.02,0,.03,0c28.55.02,51.77,23.25,51.77,51.81h12.95c0-23.19-12.25-43.57-30.62-55.01,10.42-1.97,20.59-4.85,30.42-8.59,16.13,16.38,26.11,38.84,26.11,63.59h12.95c0-26.47-9.98-50.65-26.37-68.98,7.94-3.74,15.62-8.08,22.97-12.98,18.3,22.34,29.3,50.89,29.3,81.96h12.95c0-33.89-11.9-65.04-31.73-89.53,6.09-4.72,11.93-9.85,17.47-15.39.62-.62,1.23-1.26,1.85-1.89,23.93,29.08,38.31,66.3,38.31,106.81h12.95c0-43.13-14.97-83.96-42.43-116.57,27.46-32.61,42.43-73.44,42.43-116.57ZM181.71,129.52c-.13,0-.25,0-.38,0s-.25,0-.38,0c-20.08-.06-39.1-4.71-56.06-12.95,16.96-8.25,35.98-12.89,56.06-12.95.13,0,.25,0,.38,0s.25,0,.38,0c20.08.06,39.1,4.71,56.06,12.95-16.96,8.25-35.98,12.89-56.06,12.95ZM251.21,124.12c7.76,4.99,14.95,10.78,21.46,17.26-7.63,4.95-15.69,9.29-24.11,12.97-8.4-7.18-17.97-13.04-28.36-17.27,10.93-3.1,21.32-7.49,31.01-12.97ZM142.46,137.09c-10.4,4.22-19.96,10.09-28.36,17.27-8.41-3.68-16.47-8.02-24.11-12.97,6.51-6.48,13.7-12.27,21.46-17.26,9.69,5.48,20.09,9.86,31.01,12.97ZM111.45,109.01c-7.76-4.99-14.95-10.78-21.46-17.26,7.63-4.95,15.69-9.29,24.11-12.97,8.4,7.18,17.97,13.04,28.36,17.27-10.93,3.1-21.32,7.49-31.01,12.97ZM220.2,96.05c10.4-4.22,19.96-10.09,28.36-17.27,8.41,3.68,16.47,8.02,24.11,12.97-6.51,6.48-13.7,12.27-21.46,17.26-9.69-5.48-20.09-9.86-31.01-12.97ZM181.33,64.76s.03,0,.05,0c18.56,0,36.43,3.04,53.15,8.62-14.86,10.8-33.1,17.21-52.81,17.29-.13,0-.25,0-.38,0s-.25,0-.38,0c-19.71-.08-37.96-6.49-52.81-17.29,16.71-5.58,34.58-8.61,53.15-8.62.02,0,.03,0,.05,0ZM59.94,116.57c5.99-6.23,12.45-12,19.33-17.26,6.19,6.36,12.96,12.14,20.23,17.26-7.27,5.12-14.04,10.9-20.23,17.26-6.88-5.26-13.34-11.03-19.33-17.26ZM181.33,168.38s-.03,0-.05,0c-18.56,0-36.43-3.04-53.15-8.62,14.86-10.8,33.1-17.21,52.81-17.29.13,0,.25,0,.38,0s.25,0,.38,0c19.71.08,37.96,6.49,52.81,17.29-16.71,5.58-34.58,8.61-53.15,8.62-.02,0-.03,0-.05,0ZM290.74,132.23c-5.61-5.77-11.75-11.01-18.35-15.66,6.6-4.64,12.74-9.89,18.35-15.66,6.24,4.77,12.1,10,17.54,15.66-5.43,5.65-11.3,10.89-17.54,15.66Z"/>
    </g>
  </g>
</svg>