<svg width="171" height="46" viewBox="0 0 171 46" fill="none" xmlns="http://www.w3.org/2000/svg">
<path d="M73.2063 20.4786L68.8609 14.045H66.6456V20.4786H62.9626V1.18018H69.8684C74.904 1.18018 77.2343 3.88034 77.2343 7.61374C77.2343 10.3139 75.6516 12.8993 72.8037 13.7603L77.6944 20.4809H73.2063V20.4786ZM66.6456 10.369H70.3285C72.1136 10.369 73.5514 9.22098 73.5514 7.61144C73.5514 5.80215 72.1136 4.85387 70.3285 4.85387H66.6456V10.369Z" fill="#350175"/>
<path d="M83.9104 4.85617V8.99138H90.8162V12.6674H83.9104V16.8026H92.1964V20.4786H80.2275V1.18018H92.1964V4.85617H83.9104Z" fill="#350175"/>
<path d="M110.153 14.7338C110.153 18.1802 107.505 20.9377 102.385 20.9377C97.2641 20.9377 94.8463 18.0653 94.5013 17.7209L96.3416 14.5042C98.0393 16.4283 100.6 17.2617 102.442 17.2617C105.003 17.2617 106.47 16.3135 106.47 14.9634C106.47 13.6133 105.09 12.9245 102.557 12.5502C97.0616 11.7167 95.1914 9.67784 95.1914 6.74806C95.1914 3.53128 97.8093 0.716309 102.615 0.716309C103.477 0.716309 106.413 0.77371 109.233 3.07207L107.68 6.23145C107.248 5.85719 105.35 4.3923 102.56 4.3923C100.602 4.3923 98.8766 4.93877 98.8766 6.48861C98.8766 7.80884 99.9992 8.2979 102.79 8.75712C107.02 9.44593 110.155 10.5963 110.155 14.7315L110.153 14.7338Z" fill="#350175"/>
<path d="M132.256 10.8283C132.256 16.4008 127.71 20.9379 122.127 20.9379C116.544 20.9379 111.999 16.4008 111.999 10.8283C111.999 5.25577 116.544 0.71875 122.127 0.71875C127.71 0.71875 132.256 5.25577 132.256 10.8283ZM128.573 10.8283C128.573 7.26712 125.695 4.39474 122.127 4.39474C118.559 4.39474 115.682 7.26712 115.682 10.8283C115.682 14.3895 118.559 17.2619 122.127 17.2619C125.695 17.2619 128.573 14.3895 128.573 10.8283Z" fill="#350175"/>
<path d="M151.822 1.18018V20.4786H148.139L138.471 7.15223V20.4786H134.788V1.18018H138.471L148.139 14.5065V1.18018H151.822Z" fill="#350175"/>
<path d="M170.24 14.5043C170.24 18.3249 166.817 20.9379 162.644 20.9379C158.471 20.9379 155.048 18.3249 155.048 14.5043C155.048 12.4654 156.026 10.7985 157.551 9.65043C156.573 8.81696 155.968 7.63908 155.968 6.23389C155.968 3.07451 158.961 0.71875 162.644 0.71875C166.327 0.71875 169.29 3.07451 169.29 6.23389C169.29 7.64137 168.685 8.7894 167.707 9.65043C169.26 10.7709 170.24 12.4654 170.24 14.5043ZM166.557 14.2747C166.557 12.6376 164.802 11.2875 162.644 11.2875C160.486 11.2875 158.731 12.6376 158.731 14.2747C158.731 15.9118 160.486 17.2619 162.644 17.2619C164.802 17.2619 166.557 15.9118 166.557 14.2747ZM159.651 6.4635C159.651 7.61153 160.974 8.53225 162.644 8.53225C164.314 8.53225 165.637 7.61382 165.637 6.4635C165.637 5.31317 164.314 4.39474 162.644 4.39474C160.974 4.39474 159.651 5.31317 159.651 6.4635Z" fill="#350175"/>
<path d="M78.281 28.896V44.2934H76.3486V31.8212L71.2533 41.0031H69.9903L64.895 31.8212V44.2934H62.9626V28.896H65.0514L70.6115 38.6152L70.6207 38.5946L70.6322 38.6152L76.1922 28.896H78.281Z" fill="#350175"/>
<path d="M82.4373 44.2957V28.896H92.4463V30.7535H84.4363V35.69H91.6227V37.5705H84.4363V42.4405H92.4463V44.2957H82.4373Z" fill="#350175"/>
<path d="M95.8695 44.2957V28.896H101.618C106.322 28.896 109.244 31.8464 109.244 36.5947C109.244 41.3429 106.322 44.2934 101.618 44.2934H95.8695V44.2957ZM97.8709 42.4175H101.618C105.02 42.4175 107.22 40.1421 107.22 36.6199C107.22 33.0978 105.02 30.7765 101.618 30.7765H97.8709V42.4175Z" fill="#350175"/>
<path d="M114.463 28.896H112.462V44.2957H114.463V28.896Z" fill="#350175"/>
<path d="M130.589 44.2957L129.078 40.5646H121.024L119.513 44.2957H117.401L123.856 28.896H126.244L132.701 44.2957H130.587H130.589ZM121.652 38.8242H128.454L125.054 30.5928L121.654 38.8242H121.652Z" fill="#350175"/>
<path d="M41.7524 0C34.6534 0 28.8978 5.74474 28.8978 12.8304C28.8978 16.0495 30.0894 18.9907 32.0517 21.2432C34.5545 18.8024 37.9752 17.2962 41.7524 17.2962C45.5297 17.2962 48.9504 18.8024 51.4532 21.2432C53.4154 18.9907 54.607 16.0495 54.607 12.8304C54.607 5.74474 48.8514 0 41.7524 0ZM41.7524 17.2939C39.2864 17.2939 37.2805 15.2918 37.2805 12.8304C37.2805 10.369 39.2864 8.36685 41.7524 8.36685C44.2185 8.36685 46.2244 10.369 46.2244 12.8304C46.2244 15.2918 44.2185 17.2939 41.7524 17.2939Z" fill="#350175"/>
<path d="M51.4509 21.2432C49.0953 23.9479 45.624 25.6608 41.7502 25.6608C37.8763 25.6608 34.4073 23.9479 32.0494 21.2432C29.4684 23.7596 27.865 27.2703 27.865 31.1553C27.865 38.8103 34.0807 45.0143 41.7502 45.0143C49.4197 45.0143 55.6353 38.8103 55.6353 31.1553C55.6353 27.2703 54.032 23.7596 51.4509 21.2432ZM41.7525 36.6474C38.7182 36.6474 36.2499 34.1838 36.2499 31.1553C36.2499 28.1268 38.7182 25.6631 41.7525 25.6631C44.7867 25.6631 47.255 28.1268 47.255 31.1553C47.255 34.1838 44.7867 36.6474 41.7525 36.6474Z" fill="#350175"/>
<path opacity="0.8" d="M41.7529 25.6604C45.6268 25.6604 49.0957 23.9476 51.4537 21.2428C48.9508 18.8021 45.5301 17.2959 41.7529 17.2959C37.9756 17.2959 34.555 18.8021 32.0521 21.2428C34.4077 23.9476 37.879 25.6604 41.7529 25.6604Z" fill="#3B0078"/>
<path d="M18.0967 32.1355C15.2052 28.2414 10.6849 25.8834 5.84485 25.7226C5.67462 25.7157 5.49979 25.7135 5.32726 25.7135H10.0914C14.7888 25.7135 18.6097 21.8997 18.6097 17.2111C18.6097 12.5226 14.7888 8.70423 10.0914 8.70423H3.17639V0.275391H10.0914C19.4448 0.275391 27.0568 7.87076 27.0568 17.2111C27.0568 23.6585 23.4268 29.2769 18.0967 32.1355Z" fill="#350175"/>
<path d="M27.423 44.7044H15.2263L10.2506 37.9999C10.2506 37.9999 7.5591 34.1448 0 34.1448H10.0803C12.9696 34.1448 15.7117 33.4101 18.0972 32.1357L27.423 44.7044Z" fill="#350175"/>
<path opacity="0.8" d="M18.0972 32.136C15.7117 33.4103 12.9696 34.145 10.0803 34.145H0V25.7139H5.32771C5.50024 25.7139 5.67507 25.7162 5.8453 25.7231C10.6853 25.8838 15.2056 28.2418 18.0972 32.136Z" fill="#3B0078"/>
</svg>
