<?xml version="1.0" encoding="UTF-8"?>
<svg id="Layer_2" data-name="Layer 2" xmlns="http://www.w3.org/2000/svg" viewBox="0 0 266.31 109.93">
  <defs>
    <style>
      .cls-1 {
        fill: #f9a265;
      }
    </style>
  </defs>
  <g id="Layer_1-2" data-name="Layer 1">
    <g>
      <g>
        <g>
          <path class="cls-1" d="M133.16,48.48c-12.95,0-25.13-5.04-34.28-14.2S84.67,12.95,84.67,0h3.46c0,24.82,20.2,45.02,45.02,45.02S178.18,24.82,178.18,0h3.46c0,12.95-5.04,25.13-14.2,34.28-9.16,9.16-21.33,14.2-34.28,14.2Z"/>
          <path class="cls-1" d="M133.16,38.1c-21.01,0-38.1-17.09-38.1-38.1h3.46c0,19.1,15.54,34.63,34.63,34.63S167.79,19.1,167.79,0h3.46c0,21.01-17.09,38.1-38.1,38.1Z"/>
          <path class="cls-1" d="M133.16,27.71c-15.28,0-27.71-12.43-27.71-27.71h3.46c0,13.37,10.88,24.24,24.24,24.24s24.24-10.88,24.24-24.24h3.46c0,15.28-12.43,27.71-27.71,27.71Z"/>
          <path class="cls-1" d="M133.16,17.32c-9.55,0-17.32-7.77-17.32-17.32h3.46c0,7.64,6.21,13.85,13.85,13.85s13.85-6.21,13.85-13.85h3.46c0,9.55-7.77,17.32-17.32,17.32Z"/>
        </g>
        <g>
          <path class="cls-1" d="M181.64,62.34h-3.46c0-24.82-20.2-45.02-45.02-45.02s-45.02,20.2-45.02,45.02h-3.46c0-12.95,5.04-25.13,14.2-34.28,9.16-9.16,21.33-14.2,34.28-14.2s25.13,5.04,34.28,14.2c9.16,9.16,14.2,21.33,14.2,34.28Z"/>
          <path class="cls-1" d="M171.25,62.34h-3.46c0-19.1-15.54-34.63-34.63-34.63s-34.63,15.54-34.63,34.63h-3.46c0-21.01,17.09-38.1,38.1-38.1s38.1,17.09,38.1,38.1Z"/>
          <path class="cls-1" d="M160.86,62.34h-3.46c0-13.37-10.88-24.24-24.24-24.24s-24.24,10.88-24.24,24.24h-3.46c0-15.28,12.43-27.71,27.71-27.71s27.71,12.43,27.71,27.71Z"/>
          <path class="cls-1" d="M137.52,49.19c-1.37-.46-2.84-.71-4.37-.71-7.64,0-13.85,6.21-13.85,13.85h-3.46c0-9.55,7.77-17.32,17.32-17.32s17.32,7.77,17.32,17.32h-3.46c0-6.11-3.98-11.31-9.48-13.15"/>
        </g>
      </g>
      <polygon points="25.72 78.11 0 78.11 0 82.45 10.4 82.45 10.4 109.27 15.36 109.27 15.36 82.45 25.72 82.45 25.72 78.11"/>
      <polygon points="48.61 91.14 34.81 91.14 34.81 78.11 29.89 78.11 29.89 109.27 34.81 109.27 34.81 95.53 48.61 95.53 48.61 109.27 53.57 109.27 53.57 78.11 48.61 78.11 48.61 91.14"/>
      <polygon points="63.05 95.4 74.55 95.4 74.55 91.32 63.05 91.32 63.05 82.45 76.7 82.45 76.7 78.11 58.14 78.11 58.14 109.27 77.1 109.27 77.1 104.92 63.05 104.92 63.05 95.4"/>
      <path d="M135.09,97.16h6.54v3.3c-1.21,1.43-2.48,2.55-3.84,3.31-1.54.86-3.15,1.29-4.85,1.29-1.44,0-2.77-.29-3.99-.88-1.23-.59-2.3-1.4-3.2-2.44-.91-1.04-1.61-2.25-2.11-3.62-.5-1.37-.75-2.85-.75-4.43,0-1.49.22-2.92.66-4.28.44-1.36,1.09-2.58,1.95-3.64.86-1.07,1.89-1.91,3.09-2.52,1.2-.61,2.53-.92,3.99-.92,1.78,0,3.43.42,4.94,1.27,1.51.85,2.67,2.12,3.49,3.82l3.77-2.72c-1.02-2.05-2.55-3.69-4.59-4.94-2.03-1.24-4.53-1.87-7.48-1.87-2.14,0-4.1.41-5.9,1.23-1.8.82-3.36,1.96-4.7,3.42-1.33,1.46-2.37,3.13-3.12,5-.75,1.87-1.12,3.88-1.12,6.01s.37,4.15,1.12,6.06c.75,1.9,1.78,3.6,3.12,5.09,1.33,1.49,2.89,2.66,4.67,3.51,1.78.85,3.7,1.27,5.75,1.27h0c3.45,0,6.47-1.38,9.08-4.1v3.88h4.13v-15.76h-10.66v3.64Z"/>
      <path d="M156.29,98.43h7.24l6.76,10.84h5.53l-7.33-11.85c1.23-.41,2.31-1.07,3.23-1.98.92-.91,1.63-1.99,2.13-3.25.5-1.26.75-2.57.75-3.95,0-1.26-.24-2.49-.72-3.69-.48-1.2-1.16-2.28-2.02-3.25-.86-.97-1.88-1.74-3.05-2.33-1.17-.59-2.46-.88-3.86-.88h-13.56v31.16h0s4.92,0,4.92,0v-10.84ZM156.29,94.08v-11.63h8.34c.88,0,1.69.26,2.44.79.75.53,1.35,1.22,1.82,2.08.47.86.7,1.87.7,2.92s-.21,2.03-.61,2.92c-.41.89-.97,1.6-1.67,2.13-.7.53-1.51.79-2.41.79h-8.6,0Z"/>
      <path d="M207.09,99.68c.75-1.89,1.12-3.87,1.12-5.95,0-1.96-.36-3.88-1.07-5.75-.72-1.87-1.73-3.57-3.03-5.09-1.3-1.52-2.87-2.74-4.7-3.64-1.83-.91-3.94-1.36-6.08-1.36s-4.12.43-5.95,1.29c-1.83.86-3.42,2.03-4.76,3.51-1.35,1.48-2.4,3.16-3.16,5.05-.76,1.89-1.14,3.96-1.14,5.95s.36,3.93,1.07,5.82c.72,1.89,1.73,3.58,3.05,5.09,1.32,1.51,2.88,2.7,4.7,3.58,1.81.88,3.85,1.32,6.1,1.32,2.14,0,4.12-.42,5.95-1.27,1.83-.85,3.42-2.01,4.76-3.49,1.35-1.48,2.39-3.16,3.14-5.05ZM202.51,97.79c-.44,1.36-1.08,2.59-1.91,3.69-.83,1.1-1.87,1.97-3.09,2.61-1.23.64-2.69.97-4.21.97s-2.9-.31-4.13-.92c-1.23-.61-2.28-1.46-3.14-2.52s-1.53-2.29-2-3.66c-.47-1.38-.7-2.79-.7-4.26h0c0-1.41.23-2.78.68-4.13.45-1.35,1.1-2.56,1.95-3.64.85-1.08,1.89-1.95,3.12-2.59,1.23-.64,2.63-.97,4.21-.97,1.49,0,2.85.31,4.06.92,1.21.61,2.26,1.46,3.14,2.52.88,1.07,1.54,2.28,2,3.64.45,1.36.68,2.77.68,4.24,0,1.38-.22,2.74-.66,4.1Z"/>
      <path d="M233.94,93.91c0,1.4-.15,2.76-.44,4.08-.29,1.32-.75,2.51-1.38,3.58-.63,1.07-1.49,1.92-2.59,2.55-1.1.63-2.49.94-4.1.94s-2.96-.31-4.06-.92-1.97-1.45-2.61-2.5c-.64-1.05-1.11-2.25-1.4-3.58-.29-1.33-.44-2.71-.44-4.15v-15.8h-4.92v15.8c0,2.02.24,3.96.72,5.84.48,1.87,1.24,3.54,2.28,5,1.04,1.46,2.41,2.62,4.13,3.47,1.71.85,3.81,1.27,6.3,1.27h0c2.43,0,4.49-.41,6.19-1.23,1.7-.82,3.08-1.94,4.15-3.36,1.07-1.42,1.86-3.07,2.37-4.96.51-1.89.77-3.9.77-6.03v-15.8h-4.96v15.8Z"/>
      <path d="M265.61,84.45c-.47-1.2-1.14-2.28-2.02-3.25-.88-.97-1.9-1.74-3.07-2.33-1.17-.59-2.46-.88-3.86-.88h-13.08v31.16h0s4.92,0,4.92,0v-10.84h8.43c1.87,0,3.52-.48,4.94-1.45,1.42-.96,2.52-2.23,3.29-3.8.77-1.57,1.16-3.21,1.16-4.94,0-1.26-.23-2.49-.7-3.69ZM260.72,91.12c-.4.88-.94,1.57-1.65,2.08-.7.51-1.52.77-2.46.77h-8.12v-11.63h7.86c.88,0,1.69.24,2.44.72s1.35,1.16,1.82,2.04c.47.88.7,1.92.7,3.03s-.2,2.11-.59,2.98Z"/>
      <path d="M108.67,105.33c1.04-1.45,1.57-3.15,1.57-5.1h0c0-1.21-.24-2.31-.71-3.28-.47-.98-1.09-1.82-1.86-2.53-.77-.71-1.58-1.28-2.43-1.73.77-.35,1.45-.83,2.05-1.44.6-.6,1.09-1.3,1.46-2.08.37-.78.55-1.58.55-2.41,0-1.41-.32-2.66-.95-3.74-.63-1.07-1.47-1.98-2.5-2.72-1.03-.74-2.17-1.29-3.4-1.66-1.24-.37-2.42-.55-3.62-.55s-2.42.18-3.65.55c-1.22.37-2.35.93-3.38,1.68-1.03.75-1.86,1.67-2.48,2.76-.62,1.09-.93,2.33-.93,3.71,0,.86.18,1.67.53,2.43.35.77.83,1.44,1.44,2.03.6.59,1.26,1.06,1.97,1.41-.77.38-1.53.92-2.28,1.62-.75.69-1.38,1.52-1.88,2.48-.5.96-.75,2.03-.75,3.21,0,1.92.51,3.63,1.53,5.12s2.39,2.67,4.11,3.52c1.72.86,3.66,1.28,5.72,1.28s3.96-.41,5.7-1.22c1.74-.81,3.13-1.94,4.18-3.39ZM96.63,83.81c.68-.29,1.4-.44,2.17-.44.82,0,1.57.15,2.23.44.66.29,1.2.71,1.61,1.24.41.53.62,1.17.62,1.9,0,.82-.23,1.51-.69,2.05-.46.55-1.02.97-1.68,1.26-.66.29-1.38.44-2.05.44s-1.36-.14-2.05-.42c-.69-.28-1.26-.7-1.7-1.26-.44-.56-.66-1.24-.66-2.03,0-.74.2-1.38.6-1.92.4-.55.94-.97,1.61-1.26ZM104.23,99.88c0,.89-.25,1.69-.75,2.4-.5.71-1.16,1.27-1.99,1.69-.83.41-1.71.62-2.65.62-.68,0-1.33-.11-1.97-.33-.63-.22-1.21-.54-1.72-.95-.52-.41-.93-.91-1.24-1.49-.31-.58-.46-1.22-.46-1.93,0-.95.25-1.78.75-2.49s1.16-1.26,1.97-1.64c.81-.38,1.69-.58,2.63-.58.68,0,1.34.1,1.99.31.65.21,1.24.51,1.77.91s.94.89,1.24,1.46c.29.58.44,1.25.44,2.02h0Z"/>
    </g>
  </g>
</svg>