<svg width="169" height="47" viewBox="0 0 169 47" fill="none" xmlns="http://www.w3.org/2000/svg">
<path d="M72.6914 21.079L68.3799 14.6871H66.1785V21.079H62.5229V1.90918H69.378C74.3738 1.90918 76.6892 4.59238 76.6892 8.30101C76.6892 10.9842 75.1209 13.5478 72.2922 14.408L77.1455 21.0847H72.6914V21.079ZM66.1785 11.0355H69.8342C71.6021 11.0355 73.0335 9.89612 73.0335 8.29531C73.0335 6.50081 71.6078 5.55514 69.8342 5.55514H66.1785V11.0355Z" fill="white"/>
<path d="M83.3092 5.56083V9.66825H90.1642V13.3199H83.3092V17.4273H91.533V21.079H79.6536V1.90918H91.533V5.56083H83.3092Z" fill="white"/>
<path d="M109.356 15.3709C109.356 18.7947 106.727 21.5349 101.646 21.5349C96.7353 21.5349 94.1632 18.6808 93.821 18.339L95.646 15.1431C97.3284 17.0572 99.8719 17.8832 101.703 17.8832C104.246 17.8832 105.7 16.9433 105.7 15.5988C105.7 14.2601 104.332 13.5764 101.817 13.2005C96.3646 12.3744 94.5054 10.3464 94.5054 7.44098C94.5054 4.24506 97.106 1.45361 101.874 1.45361C102.729 1.45361 105.643 1.51059 108.444 3.79502L106.904 6.93395C106.476 6.56366 104.588 5.11098 101.822 5.11098C99.8833 5.11098 98.1667 5.65218 98.1667 7.19032C98.1667 8.50059 99.2788 8.98481 102.05 9.44626C106.242 10.1242 109.356 11.2635 109.356 15.3709Z" fill="white"/>
<path d="M131.29 11.4914C131.29 17.023 126.779 21.5292 121.241 21.5292C115.703 21.5292 111.192 17.023 111.192 11.4914C111.192 5.9598 115.703 1.45361 121.241 1.45361C126.779 1.45361 131.29 5.9598 131.29 11.4914ZM127.634 11.4914C127.634 7.95369 124.777 5.09958 121.235 5.09958C117.694 5.09958 114.837 7.95369 114.837 11.4914C114.837 15.0291 117.694 17.8832 121.235 17.8832C124.777 17.8832 127.634 15.0291 127.634 11.4914Z" fill="white"/>
<path d="M150.709 1.90918V21.079H147.054L137.461 7.84526V21.079H133.806V1.90918H137.461L147.054 15.1429V1.90918H150.709Z" fill="white"/>
<path d="M168.987 15.1431C168.987 18.9372 165.588 21.5349 161.447 21.5349C157.307 21.5349 153.908 18.9372 153.908 15.1431C153.908 13.1207 154.877 11.4629 156.394 10.3236C155.425 9.49753 154.826 8.32969 154.826 6.92827C154.826 3.78932 157.797 1.45361 161.453 1.45361C165.08 1.45361 168.051 3.79502 168.051 6.92827C168.051 8.32399 167.453 9.46905 166.483 10.3236C168.011 11.4345 168.987 13.1207 168.987 15.1431ZM165.331 14.9152C165.331 13.2916 163.592 11.9472 161.447 11.9472C159.303 11.9472 157.564 13.2859 157.564 14.9152C157.564 16.5445 159.303 17.8832 161.447 17.8832C163.586 17.8832 165.331 16.5445 165.331 14.9152ZM158.476 7.15614C158.476 8.2955 159.788 9.207 161.447 9.207C163.101 9.207 164.419 8.2955 164.419 7.15614C164.419 6.01677 163.107 5.10528 161.447 5.10528C159.788 5.10528 158.476 6.01677 158.476 7.15614Z" fill="white"/>
<path d="M77.7271 29.436V44.732H75.8052V32.3414L70.7523 41.462H69.4977L64.4391 32.3414V44.732H62.5229V29.436H64.5988L70.1136 39.0922L70.125 39.0694L70.1364 39.0922L75.6513 29.436H77.7271Z" fill="white"/>
<path d="M81.8503 44.732V29.436H91.7849V31.2818H83.835V36.1868H90.9637V38.0553H83.835V42.8919H91.7849V44.732H81.8503Z" fill="white"/>
<path d="M95.1843 44.732V29.436H100.887C105.552 29.436 108.455 32.3642 108.455 37.0812C108.455 41.8095 105.558 44.7263 100.887 44.7263H95.1843V44.732ZM97.169 42.8692H100.887C104.264 42.8692 106.448 40.6075 106.448 37.1097C106.448 33.5776 104.264 31.3046 100.887 31.3046H97.169V42.8692Z" fill="white"/>
<path d="M113.634 29.436H111.649V44.732H113.634V29.436Z" fill="white"/>
<path d="M129.636 44.732L128.136 41.0291H120.146L118.647 44.732H116.548L122.952 29.436H125.319L131.729 44.732H129.636ZM120.768 39.2972H127.52L124.144 31.1223L120.768 39.2972Z" fill="white"/>
<path d="M42.0615 0C35.178 0 29.5947 5.57718 29.5947 12.4532C29.5947 15.6777 30.8208 18.6115 32.8283 20.8219C35.3205 18.7198 38.5427 17.4551 42.0615 17.4551C45.5802 17.4551 48.7967 18.7197 51.2946 20.8162C53.3021 18.6058 54.5282 15.6663 54.5282 12.4476C54.5282 5.57719 48.945 0 42.0615 0ZM42.0615 17.4494C39.3012 17.4494 37.0656 15.2105 37.0656 12.4532C37.0656 9.69599 39.3069 7.46284 42.0615 7.46284C44.8217 7.46284 47.063 9.70168 47.063 12.4532C47.063 15.2162 44.8217 17.4494 42.0615 17.4494Z" fill="white"/>
<path d="M51.2936 20.8218C49.0124 23.3341 45.7218 24.9121 42.0547 24.9121C45.8586 24.9121 48.9439 27.9941 48.9439 31.7882C48.9439 35.5822 45.8586 38.6699 42.0547 38.6699C38.2565 38.6699 35.1712 35.5879 35.1712 31.7882C35.1712 27.9884 38.2565 24.9121 42.0547 24.9121C38.3934 24.9121 35.1027 23.3341 32.8215 20.8275C29.6963 23.4537 27.7117 27.3902 27.7117 31.7882C27.7117 39.701 34.1333 46.1157 42.0547 46.1157C49.9762 46.1157 56.3978 39.701 56.3978 31.7882C56.4092 27.3902 54.4188 23.4537 51.2936 20.8218Z" fill="white"/>
<path opacity="0.8" d="M51.2926 20.8221C49.0114 23.3344 45.7208 24.9124 42.0538 24.9124C38.3924 24.9124 35.1018 23.3344 32.8206 20.8278C35.3128 18.7256 38.535 17.4609 42.0538 17.4609C45.5782 17.4609 48.8004 18.7256 51.2926 20.8221Z" fill="#EAEAEA"/>
<path d="M26.5538 44.7373H14.7828L9.98087 38.26C9.98087 38.26 7.38032 34.5342 0.0861816 34.5342H9.81546C12.6042 34.5342 15.2333 33.8335 17.5374 32.5973V32.5916C17.5431 32.5859 17.5431 32.5859 17.5488 32.5859C14.76 28.8203 10.4029 26.553 5.7321 26.3992C5.56671 26.3935 5.40132 26.3878 5.23023 26.3878H9.82688C14.3608 26.3878 18.0506 22.7019 18.0506 18.173C18.0506 13.6383 14.3608 9.95813 9.82688 9.95813H3.1544V1.81738H9.82688C18.8604 1.81738 26.2002 9.15489 26.2002 18.173C26.2002 24.3996 22.6929 29.8287 17.5545 32.5916L26.5538 44.7373Z" fill="white"/>
<path opacity="0.8" d="M17.5488 32.5917C17.5431 32.5974 17.5431 32.5974 17.5374 32.5974V32.6031C15.2333 33.8393 12.6042 34.54 9.81546 34.54H0.0861816V26.3936H5.23023C5.40132 26.3936 5.56671 26.3993 5.7321 26.405C10.4029 26.5588 14.76 28.8261 17.5488 32.5917Z" fill="#EAEAEA"/>
</svg>
