<?xml version="1.0" encoding="UTF-8"?>
<svg id="Layer_2" data-name="Layer 2" xmlns="http://www.w3.org/2000/svg" viewBox="0 0 50 50">
  <defs>
    <style>
      .cls-1 {
        fill: none;
        opacity: .5;
        stroke: rgba(80, 11, 181, .25);
      }

      .cls-2 {
        fill: #500bb5;
      }
    </style>
  </defs>
  <g id="Layer_1-2" data-name="Layer 1">
    <g>
      <path class="cls-1" d="M25,.5h0c13.53,0,24.5,10.97,24.5,24.5h0c0,13.53-10.97,24.5-24.5,24.5h0C11.47,49.5.5,38.53.5,25h0C.5,11.47,11.47.5,25,.5Z"/>
      <path class="cls-2" d="M23.39,24.68s1.5-.11,1.5-1.87-1.23-2.62-2.78-2.62h-5.11v9.82h5.11s3.12.1,3.12-2.9c0,0,.14-2.44-1.84-2.44h0ZM21.74,21.95h.37s.69,0,.69,1.02-.41,1.17-.87,1.17h-2.68v-2.19h2.49ZM21.97,28.28h-2.72v-2.63h2.86s1.04-.01,1.04,1.35c0,1.15-.77,1.27-1.18,1.28h0ZM29.39,22.7c-3.78,0-3.77,3.77-3.77,3.77,0,0-.26,3.76,3.77,3.76,0,0,3.36.19,3.36-2.61h-1.73s.06,1.06-1.58,1.06c0,0-1.73.12-1.73-1.71h5.09s.56-4.26-3.42-4.26ZM27.7,25.65s.21-1.51,1.73-1.51,1.5,1.51,1.5,1.51h-3.23ZM31.33,21.99h-4.05v-1.21h4.05v1.21Z"/>
    </g>
  </g>
</svg>