<?xml version="1.0" encoding="UTF-8"?>
<svg id="Layer_2" data-name="Layer 2" xmlns="http://www.w3.org/2000/svg" viewBox="0 0 50 50">
  <defs>
    <style>
      .cls-1 {
        fill: none;
        opacity: .5;
        stroke: rgba(80, 11, 181, .25);
      }

      .cls-2 {
        fill: #500bb5;
      }
    </style>
  </defs>
  <g id="Layer_1-2" data-name="Layer 1">
    <g>
      <path class="cls-1" d="M25,.5h0c13.53,0,24.5,10.97,24.5,24.5h0c0,13.53-10.97,24.5-24.5,24.5h0C11.47,49.5.5,38.53.5,25h0C.5,11.47,11.47.5,25,.5Z"/>
      <path class="cls-2" d="M25,18.45h3.28c.77,0,1.16.19,1.45.29.39.19.67.29.96.58.29.29.48.58.58.96.1.29.19.67.29,1.45v6.55c0,.77-.19,1.16-.29,1.45-.19.39-.29.67-.58.96-.29.29-.58.48-.96.58-.29.1-.67.19-1.45.29h-6.55c-.77,0-1.16-.19-1.45-.29-.39-.19-.67-.29-.96-.58-.29-.29-.48-.58-.58-.96-.1-.29-.19-.67-.29-1.45v-6.55c0-.77.19-1.16.29-1.45.19-.39.29-.67.58-.96.29-.29.58-.48.96-.58.29-.1.67-.19,1.45-.29h3.28ZM25,17h-3.28c-.87,0-1.45.19-1.93.39-.48.19-.96.48-1.45.96-.48.48-.67.87-.96,1.45-.19.48-.29,1.06-.39,1.93v6.55c0,.87.19,1.45.39,1.93.19.48.48.96.96,1.45.48.48.87.67,1.45.96.48.19,1.06.29,1.93.39h6.55c.87,0,1.45-.19,1.93-.39.48-.19.96-.48,1.45-.96.48-.48.67-.87.96-1.45.19-.48.29-1.06.39-1.93v-6.55c0-.87-.19-1.45-.39-1.93-.19-.48-.48-.96-.96-1.45-.48-.48-.87-.67-1.45-.96-.48-.19-1.06-.29-1.93-.39h-3.28Z"/>
      <path class="cls-2" d="M25,20.86c-2.31,0-4.14,1.83-4.14,4.14s1.83,4.14,4.14,4.14,4.14-1.83,4.14-4.14-1.83-4.14-4.14-4.14ZM25,27.7c-1.45,0-2.7-1.16-2.7-2.7,0-1.45,1.16-2.7,2.7-2.7,1.45,0,2.7,1.16,2.7,2.7,0,1.45-1.25,2.7-2.7,2.7Z"/>
      <path class="cls-2" d="M29.24,21.72c.53,0,.96-.43.96-.96s-.43-.96-.96-.96-.96.43-.96.96.43.96.96.96Z"/>
    </g>
  </g>
</svg>