<?xml version="1.0" encoding="UTF-8"?>
<svg id="Layer_2" data-name="Layer 2" xmlns="http://www.w3.org/2000/svg" viewBox="0 0 50 50">
  <defs>
    <style>
      .cls-1 {
        fill: none;
        opacity: .5;
        stroke: rgba(80, 11, 181, .25);
      }

      .cls-2 {
        fill: #500bb5;
      }
    </style>
  </defs>
  <g id="Layer_1-2" data-name="Layer 1">
    <g>
      <path class="cls-1" d="M25,.5h0c13.53,0,24.5,10.97,24.5,24.5h0c0,13.53-10.97,24.5-24.5,24.5h0C11.47,49.5.5,38.53.5,25h0C.5,11.47,11.47.5,25,.5Z"/>
      <path class="cls-2" d="M17.8,19.39c0-.46.16-.84.49-1.14.32-.3.75-.45,1.26-.45s.92.15,1.24.44c.32.3.49.7.49,1.19,0,.44-.16.81-.47,1.11-.32.3-.75.46-1.28.46h-.01c-.51,0-.92-.15-1.24-.46-.32-.3-.47-.69-.47-1.15ZM17.98,31.51v-9.25h3.09v9.25h-3.09ZM22.78,31.51h3.09v-5.17c0-.32.04-.57.11-.75.13-.31.33-.58.59-.8.26-.22.6-.33.99-.33,1.04,0,1.56.7,1.56,2.09v4.95h3.09v-5.31c0-1.37-.32-2.4-.97-3.11-.65-.71-1.51-1.06-2.57-1.06-1.2,0-2.13.51-2.79,1.54v.03h-.01v-.03s.01-1.32.01-1.32h-3.09c.02.3.03,1.21.03,2.76s0,3.71-.03,6.5Z"/>
    </g>
  </g>
</svg>