<?xml version="1.0" encoding="UTF-8"?>
<svg id="Layer_2" data-name="Layer 2" xmlns="http://www.w3.org/2000/svg" viewBox="0 0 50 50">
  <defs>
    <style>
      .cls-1 {
        fill: none;
        opacity: .5;
        stroke: rgba(80, 11, 181, .25);
      }

      .cls-2 {
        fill: #500bb5;
      }
    </style>
  </defs>
  <g id="Layer_1-2" data-name="Layer 1">
    <g>
      <path class="cls-1" d="M25,.5h0c13.53,0,24.5,10.97,24.5,24.5h0c0,13.53-10.97,24.5-24.5,24.5h0C11.47,49.5.5,38.53.5,25h0C.5,11.47,11.47.5,25,.5Z"/>
      <path class="cls-2" d="M18.1,24.1c4.3-1.83,7.16-3.04,8.59-3.63,4.09-1.67,4.94-1.96,5.5-1.97.12,0,.39.03.57.17.15.12.19.28.21.39.02.11.04.37.02.57-.22,2.28-1.18,7.83-1.67,10.38-.21,1.08-.61,1.45-1.01,1.48-.86.08-1.51-.55-2.33-1.09-1.3-.83-2.03-1.35-3.29-2.17-1.45-.94-.51-1.46.32-2.3.22-.22,3.99-3.58,4.06-3.89,0-.04.02-.18-.07-.26-.09-.08-.21-.05-.31-.03-.13.03-2.2,1.37-6.21,4.03-.59.4-1.12.59-1.6.58-.53-.01-1.54-.29-2.29-.53-.92-.29-1.66-.45-1.59-.95.03-.26.4-.53,1.1-.8Z"/>
    </g>
  </g>
</svg>