<?xml version="1.0" encoding="UTF-8"?>
<svg id="Layer_2" data-name="Layer 2" xmlns="http://www.w3.org/2000/svg" viewBox="0 0 50 50">
  <defs>
    <style>
      .cls-1 {
        fill: none;
        opacity: .5;
        stroke: rgba(80, 11, 181, .25);
      }

      .cls-2 {
        fill: #500bb5;
      }
    </style>
  </defs>
  <g id="Layer_1-2" data-name="Layer 1">
    <g>
      <path class="cls-1" d="M25,.5h0c13.53,0,24.5,10.97,24.5,24.5h0c0,13.53-10.97,24.5-24.5,24.5h0C11.47,49.5.5,38.53.5,25h0C.5,11.47,11.47.5,25,.5Z"/>
      <path class="cls-2" d="M33.6,20.33v-.02c-.44-1.7-2.4-3.52-4.2-3.9h-.02c-2.91-.54-5.86-.54-8.76,0h-.02c-1.8.38-3.75,2.21-4.19,3.9v.02c-.54,2.37-.54,4.78,0,7.15v.02c.42,1.63,2.23,3.36,3.96,3.84v1.9c0,.69.86,1.02,1.36.53l1.99-2c.43.02.86.04,1.29.04,1.46,0,2.93-.13,4.38-.4h.02c1.8-.38,3.76-2.21,4.19-3.9v-.02c.54-2.37.54-4.78,0-7.15ZM32.03,27.13c-.29,1.11-1.78,2.49-2.96,2.74-1.55.28-3.1.41-4.66.36-.03,0-.06.01-.08.03-.22.22-1.45,1.44-1.45,1.44l-1.54,1.53c-.11.11-.31.04-.31-.12v-3.14c0-.05-.04-.1-.09-.11,0,0,0,0,0,0-1.18-.25-2.67-1.63-2.96-2.74-.48-2.14-.48-4.32,0-6.46.29-1.11,1.78-2.49,2.96-2.74,2.7-.5,5.44-.5,8.14,0,1.18.25,2.67,1.63,2.96,2.74.48,2.14.48,4.32,0,6.46Z"/>
      <path class="cls-2" d="M27.57,28.58c-.18-.05-.35-.09-.52-.15-1.67-.67-3.2-1.53-4.41-2.85-.69-.75-1.23-1.6-1.69-2.5-.22-.43-.4-.87-.59-1.31-.17-.4.08-.82.34-1.12.25-.28.56-.5.91-.66.27-.12.53-.05.73.17.42.48.81.98,1.13,1.53.19.34.14.75-.21.99-.09.06-.16.12-.24.19-.07.06-.14.11-.18.19-.09.14-.09.3-.04.45.43,1.15,1.16,2.05,2.36,2.53.19.08.38.17.61.14.37-.04.49-.43.75-.64.25-.2.58-.2.85-.04.27.17.54.35.8.53.26.18.52.35.75.56.23.2.31.45.18.72-.24.49-.58.89-1.08,1.15-.14.07-.31.1-.47.14.16-.05-.18-.05,0,0Z"/>
      <path class="cls-2" d="M25,19.44c2.18.06,3.97,1.46,4.35,3.54.07.35.09.72.12,1.08.01.15-.08.3-.25.3-.17,0-.25-.14-.26-.29-.02-.3-.04-.6-.08-.9-.23-1.57-1.52-2.87-3.13-3.15-.24-.04-.49-.05-.74-.08-.16-.02-.36-.02-.39-.21-.03-.16.11-.28.26-.29.04,0,.08,0,.13,0-.04,0,2.18.06,0,0Z"/>
      <path class="cls-2" d="M28.31,23.59s0,.09-.02.15c-.06.21-.39.24-.47.02-.02-.06-.03-.14-.03-.2,0-.45-.1-.89-.33-1.28-.24-.4-.6-.73-1.03-.94-.26-.12-.54-.2-.82-.24-.12-.02-.25-.03-.37-.05-.15-.02-.23-.11-.22-.26,0-.14.11-.23.26-.22.5.03.98.13,1.43.36.9.46,1.42,1.19,1.57,2.17,0,.04.02.09.02.13,0,.11.01.22.02.36,0-.14,0,.03,0,0Z"/>
      <path class="cls-2" d="M26.96,23.54c-.18,0-.28-.09-.3-.26-.01-.11-.02-.23-.05-.34-.05-.22-.17-.42-.36-.55-.09-.06-.19-.11-.29-.14-.13-.04-.27-.03-.41-.06-.14-.03-.23-.15-.2-.28.02-.12.14-.21.28-.2.84.06,1.45.48,1.53,1.44,0,.07.01.14,0,.2-.03.11-.11.17-.19.17.08,0-.18,0,0,0Z"/>
    </g>
  </g>
</svg>