<?xml version="1.0" encoding="UTF-8"?>
<svg id="Layer_2" data-name="Layer 2" xmlns="http://www.w3.org/2000/svg" viewBox="0 0 50 50">
  <defs>
    <style>
      .cls-1 {
        fill: none;
        opacity: .5;
        stroke: rgba(80, 11, 181, .25);
      }

      .cls-2 {
        fill: #500bb5;
        fill-rule: evenodd;
      }
    </style>
  </defs>
  <g id="Layer_1-2" data-name="Layer 1">
    <g>
      <path class="cls-1" d="M25,.5h0c13.53,0,24.5,10.97,24.5,24.5h0c0,13.53-10.97,24.5-24.5,24.5h0C11.47,49.5.5,38.53.5,25h0C.5,11.47,11.47.5,25,.5Z"/>
      <path class="cls-2" d="M31.3,18.59c-1.69-1.69-3.94-2.59-6.3-2.59-4.95,0-9,4.05-9,9,0,1.58.45,3.15,1.24,4.5l-1.24,4.5,4.73-1.24c1.35.67,2.81,1.12,4.27,1.12,4.95,0,9-4.05,9-9,0-2.36-1.01-4.61-2.7-6.3ZM25,32.42c-1.35,0-2.7-.34-3.83-1.01l-.22-.11-2.81.79.79-2.7-.22-.34c-.79-1.24-1.12-2.59-1.12-3.94,0-4.05,3.38-7.42,7.42-7.42,2.02,0,3.83.79,5.29,2.14,1.46,1.46,2.14,3.26,2.14,5.29,0,3.94-3.26,7.31-7.42,7.31ZM29.05,26.8c-.22-.11-1.35-.67-1.57-.67-.23-.11-.34-.11-.45.11-.11.23-.56.68-.67.9-.11.11-.23.11-.45.11-.23-.11-.9-.34-1.8-1.12-.68-.56-1.12-1.35-1.24-1.58-.11-.22,0-.34.11-.45.11-.11.23-.23.34-.34.11-.11.11-.23.23-.34s0-.22,0-.34-.45-1.24-.68-1.69c-.11-.34-.34-.34-.45-.34h-.45c-.11,0-.34,0-.56.23s-.79.79-.79,1.91.79,2.14.9,2.36c.11.11,1.57,2.48,3.82,3.38,1.91.79,2.25.56,2.7.56s1.35-.56,1.46-1.01c.23-.56.23-1.01.11-1.01-.11-.56-.34-.56-.56-.68Z"/>
    </g>
  </g>
</svg>