<?xml version="1.0" encoding="UTF-8"?>
<svg id="Layer_2" data-name="Layer 2" xmlns="http://www.w3.org/2000/svg" viewBox="0 0 50 50">
  <defs>
    <style>
      .cls-1 {
        fill: none;
        opacity: .5;
        stroke: rgba(80, 11, 181, .25);
      }

      .cls-2 {
        fill: #500bb5;
      }
    </style>
  </defs>
  <g id="Layer_1-2" data-name="Layer 1">
    <g>
      <path class="cls-1" d="M25,.5h0c13.53,0,24.5,10.97,24.5,24.5h0c0,13.53-10.97,24.5-24.5,24.5h0C11.47,49.5.5,38.53.5,25h0C.5,11.47,11.47.5,25,.5Z"/>
      <path class="cls-2" d="M35.45,19.43c-.28-1-.96-1.71-1.92-2-1.65-.43-8.66-.43-8.66-.43,0,0-6.88,0-8.66.43-.96.29-1.65,1-1.93,2-.27,1.86-.27,5.57-.27,5.57,0,0,0,3.71.41,5.57.27,1,.96,1.71,1.92,2,1.65.43,8.66.43,8.66.43,0,0,6.88,0,8.66-.43.96-.29,1.65-1,1.93-2,.41-1.86.41-5.57.41-5.57,0,0,0-3.71-.55-5.57ZM22.8,28.43v-6.86l5.78,3.43-5.78,3.43Z"/>
    </g>
  </g>
</svg>