<svg width="107" height="177" viewBox="0 0 107 177" fill="none" xmlns="http://www.w3.org/2000/svg">
<path d="M54.5118 1.2434C51.7652 3.17032 49.4692 7.51661 49.4906 14.1752C49.5121 18.2538 50.6601 23.1354 53.8251 28.6271C49.5765 34.3972 48.7933 39.7176 50.585 44.7918C51.969 48.6564 52.6557 49.6519 53.2779 51.975C54.8444 57.8628 53.117 64.9174 48.4607 75.7938C44.6842 84.6577 39.7811 93.939 39.7811 105.233C39.8026 107.824 40.0171 110.35 40.3926 112.823C40.8218 112.395 41.7551 111.527 42.9031 110.478C42.3452 101.625 45.8858 92.7293 50.231 84.7433C56.5825 73.0426 57.3442 61.1814 56.1319 54.6619C60.5736 59.3936 68.0623 66.459 72.4396 73.7063C73.9202 76.1471 74.8108 78.4594 75.0253 80.8145C75.2292 86.5418 73.4159 90.6418 69.8754 94.667C66.8821 98.0712 67.9121 101.069 68.0516 101.647C68.2769 102.621 69.5 106.325 70.3583 108.755C73.6628 102.31 82.8145 98.6707 86.9558 93.2967C87.9214 99.9125 82.9218 106.196 79.1989 110.403C78.3191 111.356 77.3428 112.33 76.2592 113.379C69.2318 120.07 64.6397 124.673 62.2043 128.913C61.5713 129.844 60.552 131.974 60.037 133.601C59.3182 135.646 58.417 139.104 57.666 145.217C57.0759 148.813 56.4322 153.117 56.2069 155.044C55.7241 159.369 54.4044 166.295 49.04 168.297C48.7288 168.393 48.4392 168.479 48.1495 168.532V168.554C43.0211 169.667 37.7533 165.406 33.9338 157.709C33.1506 158.309 32.2923 158.833 31.3481 159.24C36.5302 171.39 44.3301 177 51.1322 177C56.3035 177 60.3804 174.399 61.6786 166.862C62.3545 163.051 62.8265 158.833 63.2664 154.744C63.481 152.774 64.4573 141.62 66.2383 137.594C68.4807 133.066 73.3516 128.688 80.6043 121.248C85.0889 116.623 87.5244 112.791 88.8226 109.676C93.0498 101.989 87.8141 83.6621 86.7948 80.3863C86.7626 80.29 86.7519 80.2472 86.6768 80.2472C86.5803 80.2472 86.548 80.29 86.4622 80.4077C86.4622 80.4506 86.4408 80.4612 86.4193 80.4934C84.5633 83.5122 81.2266 86.2956 78.126 88.5436C79.864 83.7799 79.3919 80.1401 78.6838 77.0999V77.0784C78.6516 76.8964 78.6194 76.7252 78.5658 76.5539V76.5646C75.4222 64.4143 62.9339 53.6235 57.2905 47.3824C49.9949 39.3108 52.4733 34.1188 55.177 30.811C55.6812 31.5603 56.207 32.3418 56.797 33.1339C66.7427 46.5475 85.4966 67.8399 95.3242 88.1261C97.8133 93.2325 99.7338 98.2853 100.775 103.081C104.658 124.095 89.8955 145.441 67.7941 139.446H67.7834C67.6332 139.404 67.4937 139.372 67.3542 139.329C66.7534 141.191 66.1955 144.167 65.6483 148.257C69.0065 149.659 72.622 150.505 76.141 150.676H76.1625C76.4093 150.676 76.6776 150.698 76.9244 150.698C95.0883 150.901 109.315 137.37 106.686 108.98C106.686 108.98 105.581 97.1826 99.4549 84.7433C89.6166 62.9049 71.4419 41.2912 60.2946 27.3211C56.7434 22.8892 54.6726 19.046 53.6105 15.7488C51.5291 9.28296 52.8702 4.28366 55.531 2.08911C56.1211 1.59668 56.8291 1.08282 57.4943 0.740256C57.8913 0.526154 57.7304 0.0765676 57.4515 0.0337472C57.3978 0.0230421 57.3228 0.00160046 57.2155 0.00160046C56.8185 -0.0198098 56.0567 0.162181 54.5118 1.2434ZM41.0793 39.268C38.1074 39.3322 35.7792 41.8158 35.8651 44.7811C35.9616 47.7357 38.4292 50.0587 41.401 49.9731C43.0104 49.9196 44.416 49.1809 45.3923 48.0248L45.4995 47.907C46.1325 52.1569 44.0726 55.5719 39.3197 59.5328C34.4274 63.6007 23.0226 68.964 14.9009 75.3763C3.48539 84.3579 0.781789 94.1531 0.0844143 102.096C-0.215993 105.629 0.309704 110.286 1.2753 114.14C2.48766 118.978 4.25782 122.682 4.25782 122.682C4.25782 122.682 4.34373 122.843 4.47247 123.11C4.19352 128.367 4.71924 137.552 7.69112 144.446C11.6823 153.374 18.8706 160.696 29.1595 158.544C39.5451 156.114 40.693 139.286 41.8839 126.986C42.1951 124.995 42.5062 124.631 43.1285 124.106C44.7807 122.714 48.8148 118.925 50.7567 117.244C51.9691 116.195 52.999 115.157 53.6749 113.808C54.5332 112.17 54.0826 110.007 54.0826 110.007L52.9132 101.925C52.6235 103.081 51.2073 104.687 49.2439 106.678C47.1625 108.755 41.6478 113.465 41.1436 113.979C40.65 114.493 38.8583 115.788 38.0751 121.965C36.0903 138.783 32.7644 146.705 26.8206 149.381C25.2327 150.119 23.484 150.451 21.4991 150.505C10.5664 150.408 7.70178 137.123 7.75543 129.865C7.76616 129.448 7.78766 129.02 7.79839 128.591C10.3411 132.006 14.0963 135.389 18.6989 134.683C26.0911 133.569 23.7844 121.162 22.7222 118.293C21.6708 115.392 18.8062 106.764 12.6264 107.203C8.23827 107.492 6.19983 112.63 5.28787 116.934C4.42957 113.508 3.97887 109.504 4.25782 106.368C4.90155 98.8741 7.48731 89.4964 18.4522 80.2686C26.2413 73.717 35.0926 69.0068 40.0279 65.1422C43.1714 62.6908 45.0919 59.9396 46.2077 57.3596C45.8858 59.8646 45.2743 62.5837 44.0619 65.7417C39.5236 77.6458 25.737 97.3004 25.5332 125.102C25.5332 133.644 26.3379 141.02 27.7112 147.358C28.4622 146.822 29.1703 146.169 29.8247 145.377C28.8699 140.849 28.3227 135.85 28.3227 130.508C28.3227 102.781 41.9912 83.1482 46.4652 71.2656C48.8255 65.0245 48.8899 60.4427 48.8899 55.9358C48.8899 50.412 47.6346 44.6526 46.4866 42.3939C45.2314 40.2421 43.6757 39.2787 41.3797 39.2787C41.251 39.2573 41.1544 39.2573 41.0793 39.268ZM8.61379 123.624C9.4721 120.948 10.9955 118.571 13.6563 117.073C18.0015 115.028 19.7074 120.241 19.7074 120.241C19.4177 123.753 16.7141 125.594 13.7529 125.594C11.9827 125.594 10.1373 124.952 8.61379 123.624ZM34.127 48.4316C31.1551 48.5065 28.8268 50.9794 28.9234 53.9447C28.9985 56.8886 31.4876 59.2223 34.438 59.1367C37.4099 59.051 39.7167 56.5674 39.6416 53.6342C39.5558 50.7331 37.174 48.4316 34.2772 48.4316H34.127ZM66.1848 79.9581C65.6591 80.5148 63.2128 83.2018 60.8417 85.7817C58.7281 88.0833 56.7111 90.2779 56.2819 90.7489C55.2627 91.8729 54.7478 92.9648 54.8658 93.5536L55.488 96.5617C55.649 95.9944 56.282 94.9881 56.9901 94.2066C57.5158 93.6499 59.9727 90.9523 62.333 88.3937C64.4359 86.0921 66.4529 83.8976 66.9035 83.4159C67.912 82.3132 68.4378 81.1892 68.3091 80.6111L67.6761 77.603C67.5259 78.149 66.9036 79.1659 66.1848 79.9581ZM23.6985 84.4329C23.6985 84.4329 19.3962 87.4731 17.6581 91.5303C16.596 93.9818 16.6496 96.6581 17.2612 97.9427C17.862 99.2487 19.3104 100.48 21.188 98.9918C22.4969 97.9427 23.0655 96.4975 23.3659 95.2557C23.5376 94.5278 23.5912 94.0461 23.5912 93.6928C23.5805 93.2325 23.4411 92.8578 23.0119 92.9755C21.7674 93.3609 22.5184 95.0416 21.6171 95.8552C20.9412 96.2727 19.1817 96.0586 18.8491 94.3244C18.4951 92.6009 19.8254 90.3635 21.0485 88.9076C22.2501 87.441 24.3851 85.4927 24.3851 85.4927C24.3851 85.4927 25.9087 84.2509 25.3937 83.6407C25.3508 83.6086 25.3079 83.5872 25.2435 83.5872C24.7821 83.5764 23.6985 84.4329 23.6985 84.4329ZM57.0866 116.677L63.996 119.942L67.8262 111.849L60.9169 108.584L57.0866 116.677ZM43.9545 125.369C46.8728 132.188 51.3146 138.098 56.4001 142.433C56.9365 138.858 57.5158 136.363 58.0415 134.554C52.8702 130.861 49.1367 126.857 46.7549 122.843L43.9545 125.369ZM79.7567 131.043L86.6661 134.308L90.4855 126.204L83.5762 122.961L79.7567 131.043ZM42.1629 148.011L48.0423 152.871L53.7714 145.998L47.892 141.138L42.1629 148.011ZM40.8433 160.043L46.7334 164.914L52.4518 158.009L46.5617 153.149L40.8433 160.043ZM68.5558 154.98C68.2769 155.097 68.1802 155.547 68.3734 156.168C68.5558 156.778 69.575 159.369 69.575 159.369C70.3046 161.338 71.5385 163.619 73.1693 164.775C74.9395 166.027 75.8514 165.588 76.2055 165.438C76.463 165.321 77.6003 164.614 77.1926 162.837C76.7634 160.932 76.5166 160.418 76.1733 159.733C75.8192 159.048 75.3686 158.619 75.0789 158.716C74.9287 158.769 75.0575 159.39 75.0468 159.775C75.0361 160.45 74.7893 160.974 74.2099 161.231C73.6949 161.456 72.4289 161.906 71.4418 160.182C70.6479 158.812 69.9506 156.981 69.6609 156.232C69.4249 155.643 69.06 154.947 68.6738 154.947C68.6523 154.947 68.6094 154.958 68.5558 154.98Z" fill="#FFBE00"/>
</svg>
