<svg width="189" height="197" viewBox="0 0 189 197" fill="none" xmlns="http://www.w3.org/2000/svg">
<path d="M95.1556 1.04812C92.8668 2.65242 90.963 6.27814 90.9737 11.829C90.9951 15.2301 91.9469 19.305 94.578 23.8719C91.0378 28.6848 90.3855 33.1233 91.8829 37.348C93.0273 40.5673 93.6048 41.4015 94.1182 43.3374C95.423 48.2465 93.9898 54.1289 90.1074 63.1986C86.9737 70.589 82.8881 78.3324 82.8881 87.7443C82.9095 89.9047 83.0913 92.0117 83.4014 94.0759C83.7544 93.723 84.5351 92.9957 85.487 92.1186C85.0164 84.7389 87.9684 77.3164 91.5834 70.6532C96.8669 60.8991 97.4978 51.0059 96.4925 45.5727C100.193 49.5193 106.418 55.4124 110.065 61.4552C111.295 63.4873 112.043 65.4125 112.215 67.3804C112.375 72.1505 110.878 75.573 107.936 78.9313C105.444 81.7656 106.311 84.2683 106.418 84.7496C106.6 85.5624 107.626 88.6534 108.343 90.6748C111.092 85.2951 118.707 82.2683 122.151 77.7869C122.953 83.3057 118.792 88.5464 115.701 92.0438C114.974 92.8459 114.161 93.6481 113.252 94.5251C107.412 100.108 103.583 103.937 101.562 107.477C101.038 108.258 100.193 110.033 99.7546 111.392C99.1557 113.103 98.4069 115.98 97.7759 121.082C97.2839 124.076 96.7491 127.67 96.5673 129.274C96.1716 132.878 95.07 138.654 90.5994 140.322C90.3427 140.397 90.1074 140.472 89.8614 140.515V140.526C85.594 141.456 81.2196 137.895 78.0324 131.477C77.38 131.98 76.6741 132.419 75.8826 132.761C80.1928 142.9 86.6849 147.563 92.3427 147.563C96.6422 147.563 100.033 145.392 101.113 139.103C101.669 135.927 102.075 132.408 102.428 128.996C102.61 127.349 103.423 118.055 104.899 114.696C106.76 110.921 110.814 107.263 116.856 101.071C120.589 97.2203 122.61 94.0117 123.691 91.4235C127.209 85.017 122.846 69.7334 122.001 67.0061C121.979 66.9205 121.958 66.8884 121.905 66.8884C121.83 66.8884 121.798 66.9205 121.733 67.0168C121.733 67.0488 121.723 67.0595 121.701 67.0916C120.161 69.605 117.38 71.9259 114.803 73.8083C116.247 69.8403 115.862 66.8029 115.263 64.2681V64.2574C115.241 64.1077 115.209 63.9579 115.166 63.8189V63.8296C112.557 53.7011 102.161 44.6957 97.4658 39.4978C91.3909 32.7704 93.455 28.4388 95.701 25.6794C96.1182 26.3104 96.5567 26.9521 97.0487 27.6153C105.327 38.8025 120.931 56.5568 129.102 73.4767C131.177 77.7335 132.771 81.9474 133.637 85.9475C136.867 103.466 124.589 121.274 106.193 116.269H106.182C106.065 116.237 105.936 116.204 105.819 116.172C105.316 117.723 104.856 120.215 104.396 123.616C107.188 124.782 110.193 125.499 113.124 125.627H113.145C113.348 125.627 113.573 125.638 113.776 125.638C128.889 125.809 140.718 114.525 138.536 90.8566C138.536 90.8566 137.616 81.0169 132.514 70.6532C124.332 52.4391 109.209 34.4175 99.9363 22.781C96.9844 19.0804 95.2519 15.8825 94.3748 13.1338C92.6422 7.7434 93.7652 3.5829 95.9684 1.74331C96.4604 1.33689 97.0487 0.909076 97.5941 0.609608C97.9257 0.427787 97.7866 0.0534648 97.562 0.0213789C97.5192 0.0106836 97.455 0 97.3694 0C97.07 0 96.439 0.149713 95.1556 1.04812ZM83.979 32.749C81.5084 32.8025 79.5725 34.8774 79.6367 37.3373C79.7222 39.7972 81.7651 41.7438 84.2464 41.6689C85.594 41.6261 86.7598 41.0058 87.5619 40.0432L87.6474 39.9469C88.1715 43.4978 86.4603 46.332 82.5031 49.6369C78.4389 53.0273 68.9414 57.4979 62.182 62.8456C52.6846 70.3323 50.4385 78.5035 49.861 85.1239C49.615 88.0758 50.0427 91.9582 50.8556 95.1668C51.8716 99.1989 53.337 102.29 53.337 102.29C53.337 102.29 53.4117 102.418 53.5187 102.643C53.2834 107.028 53.7219 114.675 56.1925 120.429C59.5188 127.873 65.4868 133.98 74.0538 132.183C82.6956 130.162 83.6475 116.13 84.6421 105.873C84.8988 104.215 85.1555 103.905 85.6795 103.466C87.0485 102.301 90.4068 99.1455 92.0218 97.7444C93.0271 96.8674 93.8828 96.0011 94.4496 94.8781C95.1662 93.5197 94.792 91.7015 94.792 91.7015L93.8187 84.9635C93.5727 85.9261 92.3962 87.263 90.7598 88.9315C89.0272 90.6641 84.4388 94.5893 84.0217 95.0171C83.6153 95.4449 82.1179 96.5251 81.4655 101.68C79.8078 115.702 77.0485 122.301 72.0966 124.536C70.781 125.146 69.3158 125.435 67.6687 125.477C58.5777 125.392 56.1926 114.322 56.2353 108.269C56.246 107.926 56.2568 107.563 56.2675 107.21C58.3851 110.055 61.5081 112.878 65.3371 112.29C71.4869 111.36 69.5617 101.017 68.6847 98.6214C67.8077 96.2043 65.4226 89.0063 60.2782 89.37C56.6204 89.616 54.9306 93.8941 54.1712 97.4877C53.4546 94.6321 53.0802 91.2951 53.3155 88.6748C53.8503 82.4287 56.0001 74.6105 65.1339 66.9098C71.6153 61.4445 78.9735 57.5193 83.0805 54.2894C85.6902 52.2465 87.2945 49.9471 88.225 47.7973C87.9577 49.8829 87.4442 52.1503 86.4389 54.7814C82.6634 64.7066 71.1982 81.0918 71.027 104.269C71.027 111.392 71.7008 117.541 72.8345 122.825C73.4548 122.376 74.0538 121.83 74.5885 121.178C73.7971 117.402 73.3371 113.231 73.3371 108.782C73.3371 85.6694 84.7169 69.2949 88.4282 59.391C90.3961 54.1824 90.4389 50.3642 90.4389 46.6101C90.4389 42.0005 89.3908 37.1983 88.4389 35.3266C87.4014 33.5298 86.1073 32.7276 84.1822 32.7276C84.118 32.7383 84.0432 32.7383 83.979 32.749ZM56.9627 103.092C57.6686 100.857 58.9519 98.8781 61.1552 97.6268C64.7702 95.9262 66.1927 100.268 66.1927 100.268C65.9467 103.199 63.7007 104.728 61.2408 104.728C59.7755 104.739 58.2354 104.194 56.9627 103.092ZM78.1928 40.3962C75.7222 40.4603 73.7863 42.5245 73.8612 44.9951C73.9254 47.455 75.9896 49.3909 78.4495 49.316C80.9201 49.2412 82.8453 47.177 82.7812 44.7277C82.717 42.2999 80.7276 40.3962 78.3212 40.3962H78.1928ZM104.867 66.6745C104.428 67.1344 102.396 69.3804 100.418 71.5302C98.6637 73.4446 96.9845 75.2736 96.6208 75.6693C95.7759 76.6105 95.3481 77.5196 95.4444 78.0009L95.9577 80.5036C96.0968 80.033 96.6209 79.188 97.2091 78.5356C97.6476 78.0757 99.6903 75.819 101.648 73.6907C103.402 71.7762 105.081 69.9473 105.455 69.5409C106.3 68.6211 106.728 67.6906 106.621 67.1986L106.097 64.6959C105.979 65.1772 105.466 66.0221 104.867 66.6745ZM69.519 70.4179C69.519 70.4179 65.936 72.9527 64.4921 76.3324C63.6044 78.3752 63.6579 80.5998 64.1606 81.68C64.6633 82.771 65.8718 83.7977 67.4226 82.5571C68.5135 81.6801 68.9842 80.4822 69.2409 79.434C69.3799 78.8244 69.4227 78.4287 69.4227 78.1292C69.412 77.7442 69.305 77.434 68.9414 77.5303C67.9039 77.8511 68.5243 79.2522 67.7756 79.926C67.2088 80.2789 65.7542 80.0971 65.4761 78.6533C65.1766 77.2201 66.2889 75.3484 67.305 74.1292C68.3103 72.8992 70.0858 71.2842 70.0858 71.2842C70.0858 71.2842 71.3585 70.2468 70.9307 69.7334C70.8986 69.7013 70.8558 69.6906 70.8023 69.6906C70.4173 69.6906 69.519 70.4179 69.519 70.4179ZM97.2946 97.2952L103.038 100.022L106.225 93.2738L100.471 90.5464L97.2946 97.2952ZM86.3748 104.547C88.8026 110.226 92.4924 115.167 96.7278 118.771C97.177 115.787 97.6583 113.712 98.0968 112.204C93.7973 109.124 90.6849 105.787 88.7063 102.44L86.3748 104.547ZM116.15 109.274L121.894 112.001L125.07 105.252L119.327 102.557L116.15 109.274ZM84.8774 123.424L89.7651 127.477L94.5353 121.745L89.6368 117.691L84.8774 123.424ZM83.7758 133.456L88.6743 137.52L93.4336 131.755L88.5352 127.702L83.7758 133.456ZM106.835 129.231C106.6 129.328 106.514 129.702 106.674 130.226C106.824 130.739 107.669 132.9 107.669 132.9C108.279 134.547 109.295 136.451 110.664 137.403C112.14 138.44 112.899 138.076 113.188 137.959C113.402 137.862 114.354 137.274 114.011 135.788C113.648 134.205 113.445 133.777 113.166 133.199C112.878 132.632 112.493 132.269 112.257 132.354C112.129 132.397 112.236 132.911 112.236 133.231C112.225 133.798 112.022 134.226 111.541 134.451C111.113 134.643 110.054 135.007 109.241 133.574C108.578 132.429 108.001 130.9 107.755 130.28C107.551 129.788 107.252 129.21 106.942 129.21C106.91 129.21 106.878 129.221 106.835 129.231Z" fill="#FFBE00"/>
<path d="M140.559 188.28H124.762V165.178L139.692 165.082V169.98H130.922V174.505H138.174L138.142 179.285H130.922V183.467H140.559V188.28Z" fill="#195B9F"/>
<path d="M26.8347 165.019H32.899V183.297H40.129V188.281L26.8347 188.292V165.019Z" fill="#195B9F"/>
<path d="M156.537 165.008C162.815 164.687 164.665 174.462 159.04 176.89C160.109 178.003 160.826 179.671 161.361 181.222C161.874 182.719 162.58 184.163 163.029 185.66C163.468 186.484 163.703 187.425 164.013 188.281C161.96 188.281 159.906 188.291 157.853 188.302C157.082 186.858 156.633 185.179 155.992 183.65C155.275 182.281 155.2 180.313 153.564 179.66C152.986 179.66 152.355 179.66 151.724 179.66C151.607 179.639 151.553 179.692 151.574 179.81C151.564 182.634 151.553 185.457 151.542 188.281C149.553 188.281 147.564 188.281 145.564 188.291C145.542 180.537 145.542 172.772 145.564 165.018C149.211 165.018 152.879 165.008 156.537 165.008ZM151.532 174.334C152.237 174.74 154.323 174.387 154.366 174.323C154.943 174.291 155.296 174.099 155.553 173.853C155.992 173.436 156.184 172.826 156.184 172.227V171.457C155.746 170.655 154.901 170.163 153.992 170.163H151.532C151.532 170.163 151.382 170.141 151.393 170.184C151.403 171.575 151.403 172.687 151.414 174.067C151.435 174.313 151.532 174.334 151.532 174.334Z" fill="#1A5C9F"/>
<path d="M171.832 188.292L165.853 188.281L173.821 165.019H180.484L188.623 188.281L182.302 188.292L180.88 183.981C178.302 183.981 175.757 183.981 173.222 183.981C173.201 184.056 171.832 188.292 171.832 188.292ZM179.308 178.644L177.233 171.532L177.062 171.511L174.987 178.644L175.083 178.805H179.233L179.308 178.644Z" fill="#1B5C9F"/>
<path d="M82.1929 182.28C84.6849 178.226 87.7651 174.355 90.3534 170.333C90.5245 170.28 90.5566 170.183 90.4389 169.991C87.7651 169.991 85.07 169.991 82.3747 169.991C82.3747 168.333 82.3747 166.665 82.3747 165.007C87.7545 165.007 93.1342 165.007 98.5032 165.007C98.5032 166.943 98.5139 168.879 98.5139 170.814C98.5032 170.868 98.4925 170.921 98.4925 170.986C95.6476 174.996 92.8347 179.06 90.0325 183.103C90.0432 183.157 90.0539 183.2 90.086 183.296C92.9417 183.296 95.808 183.296 98.6744 183.296C98.6744 184.954 98.6744 186.622 98.6744 188.28C93.1877 188.269 87.701 188.28 82.2143 188.269C82.2036 186.28 82.2036 184.28 82.1929 182.28Z" fill="#1A5C9F"/>
<path d="M51.6161 164.879C51.6161 164.879 51.4663 180.804 51.6161 188.676C51.6161 196.12 44.6961 197.168 40.7068 196.002L40.8244 191.018C40.8244 191.018 45.6373 193.254 45.6373 187.788C45.6373 180.398 45.7978 164.879 45.7978 164.879H51.6161Z" fill="#1A5C9F"/>
<path d="M120.195 188.28H104.398V165.178L119.328 165.082V169.98H110.558V174.505H117.81L117.778 179.285H110.558V183.467H120.195V188.28Z" fill="#195B9F"/>
<path d="M61.3368 188.292L55.3582 188.281L63.3261 165.019H69.9893L78.1284 188.281L71.8075 188.292L70.385 183.981C67.8074 183.981 65.262 183.981 62.7272 183.981C62.7058 184.056 61.3368 188.292 61.3368 188.292ZM68.8128 178.644L66.738 171.532L66.5668 171.511L64.4919 178.644L64.5882 178.805H68.738L68.8128 178.644Z" fill="#1B5C9F"/>
<path d="M5.97864 188.292L0 188.281L7.96795 165.019H14.6311L22.7702 188.281L16.4494 188.292L15.0268 183.981C12.4493 183.981 9.90387 183.981 7.36908 183.981C7.34769 184.056 5.97864 188.292 5.97864 188.292ZM13.4546 178.644L11.3798 171.532L11.2087 171.511L9.1337 178.644L9.23005 178.805H13.3798L13.4546 178.644Z" fill="#1B5C9F"/>
</svg>
