<?xml version="1.0" encoding="UTF-8"?>
<svg id="Layer_2" data-name="Layer 2" xmlns="http://www.w3.org/2000/svg" viewBox="0 0 345.02 175.61">
  <defs>
    <style>
      .cls-1 {
        fill: #1e1e1e;
      }

      .cls-2 {
        fill: #e21c43;
      }
    </style>
  </defs>
  <g id="Right">
    <g>
      <path class="cls-1" d="M159.75,77.51c11.21-3.84,19.53-14.01,20.73-26.22-1.25,12.2-9.53,22.32-20.73,26.22ZM152.68,17.12c3.4.35,6.64,1.24,9.63,2.59-2.99-1.37-6.23-2.26-9.63-2.59ZM152.68,17.12c-.79-.08-1.58-.14-2.39-.15.8.02,1.6.08,2.39.15ZM327.33,58.89c5.07-6.2,8.11-14.15,8.11-22.77,0-19.95-16.22-36.13-36.12-36.13h-95.7v117.84h-17.13l-18.09-25.14c17.3-7.38,29.48-24.51,29.48-44.47,0-26.6-21.65-48.24-48.25-48.24h-79.23C31.56,0,0,31.56,0,70.39s31.56,70.39,70.39,70.39h23.84v-25.81h-24.29c-12.23,0-23.73-4.73-32.35-13.42-8.62-8.68-13.3-20.17-13.3-32.41.11-25.02,20.57-45.42,45.65-45.42h33.48v117.06h22.93v-44.3h16.35l32.13,44.3h124.5c25.19,0,45.7-20.52,45.7-45.76,0-14.65-6.93-27.73-17.7-36.13ZM152.45,72.3h-.05l-22.31.15-3.74.02V23.73h23.28c13.36,0,24.24,10.99,24.24,24.51,0,12.4-9.35,22.65-21.42,24.06ZM119.59,23.73v48.75h-9.41V23.73h9.41ZM119.59,134.02h-9.41v-37.54h9.41v37.54ZM203.62,134.02h-25.36l-27.16-37.59-2.42-3.32-2.48-3.38h-36.01v-10.49h39.31c.15,0,.3,0,.45,0,.1,0,.19-.02.31-.05l.03.05c2.6-.07,5.12-.45,7.52-1.11h0c.41-.12.82-.24,1.22-.37.24-.08.48-.16.72-.24,11.21-3.84,19.53-14.01,20.73-26.22.02-.26.04-.53.07-.79.03-.37.05-.73.07-1.1.02-.35.02-.71.02-1.07v-.24c0-.22,0-.44,0-.66-.26-10.45-5.63-19.64-13.68-25.13-.47-.33-.95-.64-1.45-.93-.38-.23-.77-.45-1.16-.66-.22-.12-.44-.24-.67-.35-.45-.23-.9-.45-1.36-.66-2.99-1.37-6.23-2.26-9.63-2.59-.79-.08-1.58-.14-2.39-.15-.26,0-.53,0-.8,0h-79.55c-28.74,0-52.25,23.39-52.42,52.19-.05,14.03,5.42,27.22,15.27,37.2,9.92,9.92,23.11,15.38,37.15,15.38h17.52v12.29h-17.07c-35.11,0-63.69-28.52-63.69-63.63S35.28,6.76,70.39,6.76h79.23c19.31,0,35.56,13.25,40.18,31.12.16.61.3,1.22.42,1.84.59,2.75.88,5.6.88,8.52,0,17.76-11.16,32.92-26.88,38.77v-.02c-2.24.84-4.56,1.5-6.96,1.94l.03.05,2.2,3.05,2.14,2.93,16.46,22.89,4.96,6.82h20.57v9.35ZM299.32,6.76c16.17,0,29.36,13.13,29.36,29.37,0,7.21-2.65,13.86-7.04,18.99-2.93-1.7-6.03-2.99-9.3-3.95,4.23-3.67,6.88-9.02,6.88-15.05,0-10.99-8.9-19.95-19.89-19.95-5.92,0-11.27,2.6-14.93,6.77-3.11,3.49-5.02,8.17-5.02,13.19,0,6.03,2.7,11.38,6.93,15.05-3.27.95-6.42,2.25-9.35,3.95-4.4-5.13-6.99-11.78-6.99-18.99,0-4.73,1.13-9.25,3.16-13.19,1.19-2.48,2.82-4.74,4.67-6.77,5.36-5.81,13.02-9.41,21.54-9.41ZM282.3,60.02c5.12-2.59,10.93-4,17.02-4s11.89,1.41,17.02,4c-4.79,3.44-10.66,5.47-17.02,5.47s-12.23-2.03-17.02-5.47ZM322.09,95.02c0,12.56-10.2,22.83-22.77,22.83s-22.83-10.26-22.83-22.83,10.25-22.77,22.83-22.77,22.77,10.2,22.77,22.77ZM286.12,36.13c0-7.28,5.92-13.19,13.2-13.19s13.13,5.91,13.13,13.19-5.92,13.13-13.13,13.13-13.2-5.86-13.2-13.13ZM259.7,117.84h-33.14v-34.66h27.62v-22.99h-27.62V22.94h39.17c-1.64,4.06-2.54,8.51-2.54,13.19,0,8.62,3.04,16.51,8.12,22.71-10.82,8.4-17.76,21.54-17.76,36.19,0,8.28,2.2,16.12,6.14,22.83ZM210.39,134.02V6.76h68.02c-3.61,2.48-6.76,5.69-9.13,9.41h-49.49v50.78h27.62v9.47h-27.62v48.24h6.77v-.06h37.93c3.11,3.72,6.83,6.88,10.94,9.41h-65.04ZM299.32,134.02c-9.7,0-18.54-3.55-25.36-9.41-1.25-1.07-2.42-2.2-3.44-3.38-1.01-1.07-1.91-2.2-2.76-3.38-4.67-6.43-7.43-14.32-7.43-22.83,0-12.8,6.2-24.24,15.83-31.28,2.65,2.31,5.57,4.12,8.79,5.52-9.08,5.02-15.22,14.66-15.22,25.76,0,9.19,4.17,17.36,10.76,22.83,1.58,1.3,3.32,2.48,5.18,3.38,4.06,2.2,8.74,3.38,13.64,3.38,16.29,0,29.52-13.3,29.52-29.58,0-11.1-6.14-20.74-15.16-25.76,3.22-1.4,6.15-3.21,8.79-5.52,9.59,7.04,15.84,18.48,15.84,31.28,0,21.53-17.53,39-39,39Z"/>
      <g>
        <path class="cls-2" d="M165.46,169.47c-.32-.27-.67-.49-1.05-.66-.38-.17-.76-.32-1.14-.45-.38-.13-.74-.26-1.05-.39-.32-.13-.58-.27-.77-.43-.19-.16-.29-.36-.29-.62s.11-.46.34-.6c.23-.14.54-.21.94-.21.43,0,.82.09,1.17.26.35.17.7.44,1.05.79l1.85-1.85c-.44-.5-1.02-.89-1.73-1.17-.71-.28-1.48-.42-2.31-.42s-1.56.14-2.19.41c-.63.28-1.12.68-1.47,1.21-.35.53-.53,1.16-.53,1.88,0,.58.1,1.07.29,1.45.19.38.45.71.77.97.32.27.67.48,1.05.66.38.17.76.32,1.15.45.39.13.74.26,1.05.39.31.13.57.28.77.45.2.17.3.4.3.68s-.13.52-.4.69c-.26.17-.64.25-1.13.25-.57,0-1.09-.11-1.54-.34-.45-.23-.88-.55-1.26-.96l-1.85,1.85c.58.63,1.23,1.09,1.93,1.39.7.3,1.53.45,2.5.45,1.45,0,2.58-.32,3.39-.96.81-.64,1.22-1.52,1.22-2.66,0-.58-.1-1.08-.29-1.49-.2-.41-.45-.75-.77-1.02Z"/>
        <polygon class="cls-2" points="182.61 166.41 186.11 166.41 186.11 175.4 189.01 175.4 189.01 166.41 192.54 166.41 192.54 163.91 182.61 163.91 182.61 166.41"/>
        <path class="cls-2" d="M216.26,171.04c0,.41-.09.76-.26,1.05-.17.29-.41.52-.7.67-.29.16-.63.24-1.02.24s-.72-.08-1.03-.24c-.31-.16-.55-.38-.73-.68-.18-.3-.27-.65-.27-1.06v-7.12h-2.9v6.89c0,.93.21,1.75.62,2.47.42.72.99,1.29,1.74,1.7.74.42,1.6.62,2.57.62s1.84-.21,2.58-.62c.73-.42,1.3-.98,1.71-1.69.41-.71.61-1.53.61-2.46v-6.91h-2.92v7.13Z"/>
        <path class="cls-2" d="M245.89,165.5c-.55-.51-1.2-.9-1.95-1.18-.75-.28-1.57-.41-2.46-.41h-4.73v11.49h4.77c.88,0,1.69-.14,2.43-.41.75-.28,1.39-.67,1.95-1.18.55-.51.98-1.12,1.28-1.82.3-.71.45-1.49.45-2.34s-.15-1.63-.45-2.33c-.3-.7-.73-1.31-1.28-1.82ZM244.27,171.42c-.26.49-.63.86-1.12,1.11-.49.25-1.05.37-1.69.37h-1.82v-6.5h1.82c.64,0,1.2.13,1.68.38.48.25.85.62,1.12,1.09.26.48.4,1.06.4,1.75s-.13,1.3-.39,1.79Z"/>
        <rect class="cls-2" x="264.81" y="163.91" width="2.9" height="11.49"/>
        <path class="cls-2" d="M295.44,165.39c-.55-.55-1.2-.96-1.95-1.26-.75-.29-1.56-.44-2.45-.44s-1.7.15-2.45.44c-.75.29-1.39.71-1.95,1.26-.55.55-.98,1.18-1.29,1.9-.31.72-.46,1.5-.46,2.34s.16,1.63.47,2.36c.31.73.75,1.36,1.31,1.9.56.54,1.21.96,1.95,1.26.75.3,1.56.45,2.45.45s1.68-.15,2.42-.45c.74-.3,1.39-.72,1.94-1.26s.98-1.18,1.29-1.9c.31-.72.46-1.51.46-2.35s-.15-1.63-.46-2.35c-.31-.72-.74-1.36-1.29-1.9ZM293.82,171.41c-.25.51-.62.9-1.1,1.18-.48.28-1.04.42-1.68.42-.48,0-.91-.08-1.31-.23-.39-.16-.73-.38-1.01-.68-.28-.3-.49-.65-.64-1.07-.15-.42-.22-.88-.22-1.4,0-.67.13-1.26.4-1.76.26-.5.63-.89,1.11-1.17.48-.28,1.03-.41,1.67-.41.47,0,.91.08,1.3.23.39.16.72.38,1.01.68.28.3.49.65.64,1.06.15.41.22.87.22,1.36,0,.68-.13,1.28-.38,1.78Z"/>
        <path class="cls-2" d="M322.02,170.49c-.2-.41-.45-.75-.77-1.02-.32-.27-.67-.49-1.05-.66-.38-.17-.76-.32-1.14-.45-.38-.13-.73-.26-1.05-.39-.32-.13-.58-.27-.77-.43-.19-.16-.29-.36-.29-.62s.11-.46.34-.6c.23-.14.54-.21.94-.21.43,0,.82.09,1.17.26.35.17.7.44,1.05.79l1.85-1.85c-.44-.5-1.02-.89-1.73-1.17-.71-.28-1.48-.42-2.31-.42s-1.56.14-2.19.41c-.63.28-1.12.68-1.47,1.21-.35.53-.53,1.16-.53,1.88,0,.58.1,1.07.29,1.45.19.38.45.71.77.97.32.27.67.48,1.05.66.38.17.76.32,1.15.45.39.13.74.26,1.05.39.31.13.57.28.77.45.2.17.3.4.3.68s-.13.52-.4.69c-.26.17-.64.25-1.13.25-.57,0-1.09-.11-1.54-.34-.45-.23-.88-.55-1.26-.96l-1.85,1.85c.58.63,1.23,1.09,1.93,1.39.7.3,1.53.45,2.5.45,1.45,0,2.58-.32,3.39-.96.81-.64,1.22-1.52,1.22-2.66,0-.58-.1-1.08-.29-1.49Z"/>
      </g>
    </g>
  </g>
</svg>