<?xml version="1.0" encoding="UTF-8"?>
<svg id="Layer_2" data-name="Layer 2" xmlns="http://www.w3.org/2000/svg" viewBox="0 0 118.93 151.54">
  <defs>
    <style>
      .cls-1 {
        fill: #0d241e;
      }

      .cls-2 {
        fill: #0d3a30;
      }

      .cls-3 {
        fill: #183f2d;
      }

      .cls-4 {
        fill: #356553;
      }

      .cls-5 {
        fill: #6f9582;
      }
    </style>
  </defs>
  <g id="Layer_3" data-name="Layer 3">
    <g>
      <g>
        <g>
          <path class="cls-5" d="M60.87,0C52.32,0,44.34,3.39,38.41,9.54c-2.61,2.7-4.67,5.79-6.14,9.14H.01V0h60.85Z"/>
          <path class="cls-4" d="M43.62,79.69c0-9.51,7.74-17.25,17.25-17.25-9.14,0-17.38-3.95-23.1-10.24-7.83,6.59-12.83,16.47-12.83,27.48,0,6.25,1.61,12.12,4.42,17.25h31.5c-9.51,0-17.25-7.74-17.25-17.25Z"/>
          <path class="cls-5" d="M73.41,31.22c0,6.92-5.63,12.54-12.55,12.54,8.79,0,16.84,3.18,23.09,8.43,4.51-4.96,7.44-11.37,8.02-18.43-7.17-9.17-18.32-15.09-30.84-15.09h-.27c6.92,0,12.55,5.63,12.55,12.54Z"/>
          <path class="cls-2" d="M60.86,115.61H.01v-18.67h29.35c6.11,11.12,17.94,18.67,31.5,18.67Z"/>
          <path class="cls-4" d="M118.93,57.8c0,31.76-25.08,57.34-57.3,57.8,19.45-.41,35.15-16.36,35.15-35.91,0-1.7-.13-3.37-.36-5.01,2.45-5.11,3.83-10.84,3.83-16.88,0-9.06-3.1-17.4-8.29-24.04.07-.84.11-1.69.11-2.54C92.08,14.09,78.23.15,61.15,0c31.81.07,57.79,25.97,57.79,57.8Z"/>
          <path class="cls-4" d="M83.95,52.2c-5.71,6.29-13.95,10.24-23.09,10.24,9.51,0,17.25,7.74,17.25,17.25s-7.74,17.25-17.25,17.25h.27c15.54,0,28.98-9.1,35.3-22.25-1.26-8.98-5.85-16.91-12.48-22.48Z"/>
          <path class="cls-3" d="M60.86,43.76c-8.79,0-16.85,3.18-23.1,8.44,5.71,6.28,13.95,10.24,23.1,10.24s17.38-3.96,23.09-10.24c-6.25-5.26-14.3-8.43-23.09-8.43Z"/>
          <rect class="cls-2" y="27.64" width="18.7" height="60.48"/>
          <path class="cls-1" d="M96.79,79.69c0-1.7-.13-3.37-.36-5.01-6.31,13.15-19.76,22.25-35.3,22.25h-31.77c6.11,11.12,17.94,18.68,31.5,18.68,19.81,0,35.92-16.11,35.92-35.92Z"/>
          <path class="cls-3" d="M92.08,31.22c0,.86-.04,1.7-.12,2.54-7.16-9.17-18.32-15.08-30.83-15.08h-28.86c1.47-3.35,3.53-6.44,6.14-9.14C44.34,3.39,52.32,0,60.87,0h.27c17.09.15,30.95,14.09,30.95,31.22Z"/>
        </g>
        <path class="cls-5" d="M48.32,31.22c0-6.93,5.62-12.54,12.55-12.54h-28.59c-1.72,3.91-2.63,8.16-2.63,12.54,0,8.07,3.08,15.44,8.12,20.98,6.25-5.26,14.31-8.44,23.1-8.44-6.92,0-12.55-5.63-12.55-12.54Z"/>
      </g>
      <path class="cls-2" d="M0,130.35h4.26v20.84H0v-20.84Z"/>
      <path class="cls-2" d="M7.35,130.35h6.97c6.25,0,10.36,3.9,10.36,10.36s-4.14,10.48-10.36,10.48h-6.97v-20.84ZM11.61,133.98v13.57h2.59c4.14,0,6.07-2.44,6.07-6.85s-1.94-6.73-6.07-6.73h-2.59Z"/>
      <path class="cls-2" d="M27.11,145.86c0-2.23,1.19-3.78,2.86-4.67-1.43-.98-2.38-2.32-2.38-4.49,0-3.54,2.89-5.84,6.88-5.84,4.73,0,6.97,2.47,6.97,5.54,0,1.96-.92,3.45-2.47,4.47,1.91,1.07,2.98,2.5,2.98,4.58,0,3.75-2.8,6.1-7.5,6.1-4.17,0-7.32-1.99-7.32-5.69ZM37.74,145.77c0-1.73-1.46-2.26-4.2-3.07-.15-.03-.27-.09-.42-.12-1.01.63-1.82,1.58-1.82,2.95,0,1.79,1.46,2.74,3.27,2.74,1.91,0,3.16-.86,3.16-2.5ZM35.78,139.54c.92-.74,1.52-1.64,1.52-2.92,0-1.49-1.01-2.5-2.83-2.5-1.58,0-2.71.89-2.71,2.32,0,1.61,1.19,2.29,3.36,2.92.24.06.45.12.65.18Z"/>
      <path class="cls-2" d="M68.38,130.35v20.84h-1.4v-15.21c0-1.16.03-2.14.06-2.95-2.05,4.76-4.64,9.62-8.13,15.09h-1.34c-3.48-5.48-6.07-10.36-8.16-15.12.06.83.09,1.88.09,2.98v15.21h-1.37v-20.84h1.49c2.2,5.45,5.21,10.81,8.66,16.4,3.45-5.6,6.37-10.96,8.57-16.4h1.52Z"/>
      <path class="cls-2" d="M79.06,151.54c-4.64,0-7.59-2.68-7.59-7.86,0-4.5,2.44-7.77,6.7-7.77,3.99,0,5.95,2.92,5.95,6.4,0,.6-.03,1.07-.09,1.61h-11.13c.09,4.32,2.5,6.34,6.22,6.34,1.55,0,3.16-.39,4.58-1.01l.33,1.22c-1.52.74-3.13,1.07-4.97,1.07ZM72.93,142.79h9.73c.03-.24.03-.39.03-.65,0-2.47-1.25-4.97-4.52-4.97s-4.97,2.32-5.24,5.63Z"/>
      <path class="cls-2" d="M94.16,151.54c-4.35,0-7.26-2.77-7.26-7.59s2.65-8.04,7.68-8.04c1.1,0,2.2.24,3.1.6v-6.76l1.4-.09v20.57c-1.16.8-2.8,1.31-4.91,1.31ZM94.13,150.26c1.4,0,2.83-.33,3.54-.83v-11.55c-.89-.42-2.02-.71-3.07-.71-4.11,0-6.25,2.56-6.25,6.79,0,3.93,2.29,6.31,5.78,6.31Z"/>
      <path class="cls-2" d="M102.97,131.63c0-.57.39-1.07,1.1-1.07.65,0,1.04.51,1.04,1.07,0,.63-.39,1.1-1.04,1.1-.71,0-1.1-.48-1.1-1.1ZM104.76,151.18h-1.4v-14.91h1.4v14.91Z"/>
      <path class="cls-2" d="M113.37,151.54c-3.6,0-5.48-1.76-5.48-4.32,0-3.3,2.65-4.49,5.72-4.49,1.34,0,2.71.18,3.93.45v-2.02c0-2.47-1.28-3.99-4.2-3.99-1.55,0-2.98.36-4.05.8l-.39-1.22c1.1-.48,2.8-.83,4.47-.83,3.69,0,5.57,1.82,5.57,5.27v8.93c-1.34.83-3.04,1.43-5.57,1.43ZM117.54,149.34v-4.97c-1.1-.27-2.29-.48-3.84-.48-2.53,0-4.38.8-4.38,3.33,0,2.05,1.55,3.1,4.11,3.1,2.11,0,3.36-.51,4.11-.98Z"/>
    </g>
  </g>
</svg>