<?xml version="1.0" encoding="UTF-8"?>
<svg id="Layer_2" data-name="Layer 2" xmlns="http://www.w3.org/2000/svg" viewBox="0 0 160.16 226.56">
  <defs>
    <style>
      .cls-1 {
        fill: #1f3060;
      }

      .cls-2 {
        fill: #e9bb9b;
      }

      .cls-2, .cls-3 {
        opacity: .9;
      }

      .cls-4 {
        opacity: .7;
      }

      .cls-4, .cls-3, .cls-5 {
        fill: #f9a265;
      }
    </style>
  </defs>
  <g id="Right">
    <g>
      <g>
        <path class="cls-1" d="M43.01,80.93c-9.64,8.48-15.74,20.9-15.74,34.72,0,25.48,20.73,46.21,46.21,46.21h7.35c.07,0,.15,0,.23,0v-23c-.07,0-.15,0-.23,0h-7.35c-12.8,0-23.21-10.42-23.21-23.21s10.39-23.19,23.16-23.22h7.45c12.77.03,23.16,10.43,23.16,23.22h23c0-13.82-6.1-26.24-15.74-34.72,9.65-8.48,15.74-20.89,15.74-34.71C127.04,20.73,106.31,0,80.83,0h-7.35C48,0,27.27,20.73,27.27,46.21c0,13.82,6.1,26.24,15.74,34.71M73.48,23h7.35c12.8,0,23.21,10.41,23.21,23.21s-10.39,23.18-23.16,23.21h-7.45c-12.78-.03-23.16-10.43-23.16-23.21s10.41-23.21,23.21-23.21"/>
        <rect class="cls-2" x="81.05" y="138.85" width="22.99" height="22.99"/>
        <rect class="cls-4" x="104.05" y="115.64" width="22.99" height="22.99"/>
        <rect class="cls-3" x="119.87" y="138.63" width="15.09" height="15.09"/>
        <rect class="cls-5" x="125.68" y="157.59" width="12.05" height="12.05"/>
        <rect class="cls-4" x="104.05" y="153.72" width="18.05" height="18.05"/>
      </g>
      <g>
        <path class="cls-1" d="M13.31,212.01h-4.37v13.81H0v-43.73h13.31c5.46,0,9.76,1.3,12.91,3.91,3.14,2.61,4.71,6.3,4.71,11.08s-1.56,8.48-4.68,11.06c-3.13,2.58-7.44,3.87-12.94,3.87ZM13.12,189.71h-4.18v14.75h4.18c2.83,0,4.98-.57,6.44-1.7,1.45-1.12,2.18-3.02,2.18-5.69s-.73-4.56-2.18-5.67c-1.46-1.13-3.61-1.7-6.44-1.7Z"/>
        <path class="cls-1" d="M41.36,189.65c-1.59,0-2.81-.43-3.69-1.31-.87-.88-1.31-2.04-1.31-3.5s.44-2.62,1.31-3.5c.88-.88,2.1-1.31,3.69-1.31s2.75.43,3.62,1.31c.88.88,1.32,2.04,1.32,3.5s-.44,2.62-1.32,3.5c-.87.88-2.08,1.31-3.62,1.31ZM45.67,193.89v31.93h-8.63v-31.93h8.63Z"/>
        <path class="cls-1" d="M71.41,225.82c-1.17-3.13-3.52-7-7.06-11.62-3,4.34-4.83,8.21-5.49,11.62h-8.37c1.45-6.03,4.62-11.62,9.5-16.75-2.37-2.62-4.32-5.09-5.84-7.41-1.52-2.31-2.72-4.9-3.59-7.78h9.31c.75,2.63,2.85,6.17,6.31,10.63,2.79-4.17,4.37-7.71,4.75-10.63h8.75c-1.46,5.88-4.48,11.17-9.06,15.87,4.62,5.22,7.99,10.57,10.12,16.06h-9.3Z"/>
        <path class="cls-1" d="M108.58,224.45c-3.13,1.41-6.77,2.12-10.93,2.12-5.09,0-9.18-1.5-12.28-4.52-3.1-3.03-4.65-7.09-4.65-12.21s1.44-8.98,4.31-12.06c2.87-3.09,6.6-4.63,11.19-4.63,4.08,0,7.36,1.31,9.84,3.93,2.48,2.63,3.71,6.05,3.71,10.25,0,1.49-.08,3.08-.25,4.75h-19.75c.79,4.83,3.71,7.25,8.75,7.25,2.92,0,5.81-.61,8.69-1.82l1.38,6.94ZM96.21,200.02c-1.79,0-3.26.6-4.41,1.8-1.15,1.21-1.86,2.87-2.16,5h11.87v-.75c0-1.79-.47-3.25-1.41-4.38-.94-1.13-2.24-1.68-3.9-1.68Z"/>
        <path class="cls-1" d="M122.07,183.15v31.11c0,3.45,1.12,5.18,3.37,5.18.67,0,1.27-.06,1.81-.19l.63,6.82c-1.58.32-3.04.49-4.37.49-6.71,0-10.06-4.05-10.06-12.18v-31.23h8.63Z"/>
        <path class="cls-3" d="M144.42,226.56c-4.54,0-8.24-1.05-11.09-3.15-2.86-2.1-4.28-5.03-4.28-8.78,0-4.41,2-7.68,5.99-9.81-3.33-2.3-4.99-5.43-4.99-9.44,0-3.67,1.34-6.62,4.03-8.87,2.69-2.25,6.16-3.37,10.4-3.37,4.75,0,8.37,1.08,10.87,3.25,2.5,2.16,3.75,4.95,3.75,8.37,0,4-1.73,7.13-5.19,9.38,4.17,2.33,6.25,5.53,6.25,9.62s-1.39,7.08-4.19,9.38c-2.79,2.28-6.64,3.43-11.55,3.43ZM144.73,219.7c2.04,0,3.65-.46,4.84-1.38,1.19-.91,1.78-2.2,1.78-3.87s-.64-2.91-1.94-3.75c-1.29-.83-3.58-1.72-6.87-2.68-.08-.05-.22-.08-.41-.13-.19-.04-.34-.07-.47-.12-2.54,1.59-3.81,3.64-3.81,6.19,0,1.79.65,3.2,1.94,4.21,1.29,1.02,2.94,1.54,4.94,1.54ZM145.86,201.02c.33.08.79.2,1.37.37,2.13-1.71,3.19-3.75,3.19-6.12,0-1.59-.52-2.86-1.56-3.81-1.05-.96-2.5-1.44-4.38-1.44-1.66,0-3.03.44-4.09,1.31-1.06.88-1.59,2.07-1.59,3.57s.57,2.81,1.69,3.71c1.12.89,2.92,1.7,5.37,2.4Z"/>
      </g>
    </g>
  </g>
</svg>