<?xml version="1.0" encoding="UTF-8"?>
<svg id="Layer_2" data-name="Layer 2" xmlns="http://www.w3.org/2000/svg" viewBox="0 0 1102.77 292.15">
  <defs>
    <style>
      .cls-1 {
        fill: #402773;
        opacity: .8;
      }

      .cls-2 {
        fill: #3a2670;
      }
    </style>
  </defs>
  <g id="Left">
    <g>
      <g>
        <g>
          <path class="cls-2" d="M474.2,132.9l-28.15-41.75h-14.35v41.75h-23.86V7.65h44.73c32.62,0,47.72,17.52,47.72,41.75,0,17.52-10.25,34.3-28.71,39.89l31.69,43.61h-29.08ZM431.7,67.29h23.86c11.56,0,20.88-7.46,20.88-17.89,0-11.74-9.32-17.89-20.88-17.89h-23.86v35.79Z"/>
          <path class="cls-2" d="M543.55,31.51v26.84h44.73v23.86h-44.73v26.84h53.68v23.86h-77.54V7.65h77.54v23.86h-53.68Z"/>
          <path class="cls-2" d="M713.55,95.63c0,22.37-17.15,40.26-50.32,40.26s-48.83-18.64-51.07-20.88l11.93-20.88c11,12.49,27.59,17.9,39.52,17.9,16.59,0,26.09-6.15,26.09-14.91s-8.95-13.23-25.35-15.66c-35.6-5.41-47.72-18.64-47.72-37.65,0-20.87,16.96-39.14,48.09-39.14,5.59,0,24.6.37,42.87,15.28l-10.07,20.5c-2.8-2.42-15.1-11.93-33.18-11.93-12.67,0-23.86,3.54-23.86,13.61,0,8.57,7.27,11.74,25.35,14.72,27.4,4.47,47.72,11.93,47.72,38.77Z"/>
          <path class="cls-2" d="M856.71,70.28c0,36.16-29.45,65.61-65.61,65.61s-65.61-29.45-65.61-65.61,29.45-65.61,65.61-65.61,65.61,29.45,65.61,65.61ZM832.85,70.28c0-23.11-18.64-41.75-41.75-41.75s-41.75,18.64-41.75,41.75,18.64,41.75,41.75,41.75,41.75-18.64,41.75-41.75Z"/>
          <path class="cls-2" d="M983.47,7.65v125.25h-23.86l-62.63-86.49v86.49h-23.86V7.65h23.86l62.63,86.48V7.65h23.86Z"/>
          <path class="cls-2" d="M1102.77,94.13c0,24.79-22.18,41.75-49.21,41.75s-49.21-16.96-49.21-41.75c0-13.23,6.34-24.04,16.21-31.5-6.34-5.41-10.25-13.05-10.25-22.18,0-20.5,19.39-35.79,43.24-35.79s43.05,15.28,43.05,35.79c0,9.13-3.91,16.59-10.25,22.18,10.06,7.27,16.4,18.27,16.4,31.5ZM1078.91,92.64c0-10.62-11.37-19.38-25.35-19.38s-25.35,8.76-25.35,19.38,11.37,19.39,25.35,19.39,25.35-8.76,25.35-19.39ZM1034.18,41.95c0,7.46,8.57,13.42,19.39,13.42s19.39-5.96,19.39-13.42-8.57-13.42-19.39-13.42-19.39,5.96-19.39,13.42Z"/>
        </g>
        <g>
          <polygon class="cls-2" points="507.08 187.54 507.08 287.47 494.56 287.47 494.56 206.52 461.55 266.1 453.37 266.1 420.36 206.52 420.36 287.47 407.85 287.47 407.85 187.54 421.38 187.54 457.39 250.61 457.46 250.47 457.53 250.61 493.55 187.54 507.08 187.54"/>
          <polygon class="cls-2" points="534 287.48 534 187.54 598.84 187.54 598.84 199.58 546.96 199.58 546.96 231.63 593.51 231.63 593.51 243.83 546.96 243.83 546.96 275.43 598.84 275.43 598.84 287.48 534 287.48"/>
          <path class="cls-2" d="M621.02,287.48v-99.94h37.24c30.47,0,49.39,19.15,49.39,49.97s-18.93,49.97-49.39,49.97h-37.24ZM633.98,275.28h24.28c22.04,0,36.29-14.77,36.29-37.62s-14.24-37.92-36.29-37.92h-24.28v75.55Z"/>
          <rect class="cls-2" x="728.5" y="187.54" width="12.96" height="99.94"/>
          <path class="cls-2" d="M845.93,287.48l-9.78-24.22h-52.17l-9.78,24.22h-13.69l41.82-99.94h15.46l41.82,99.94h-13.69ZM788.03,251.96h44.06l-22.03-53.42-22.03,53.42Z"/>
        </g>
      </g>
      <g>
        <path class="cls-2" d="M270.46,0c-45.99,0-83.27,37.28-83.27,83.27,0,20.9,7.72,39.98,20.43,54.6,16.21-15.84,38.38-25.61,62.84-25.61s46.62,9.78,62.84,25.61c12.72-14.62,20.43-33.71,20.43-54.6,0-45.99-37.28-83.27-83.27-83.27ZM270.46,112.24c-15.97,0-28.97-13-28.97-28.97s13-28.97,28.97-28.97,28.97,13,28.97,28.97-13,28.97-28.97,28.97Z"/>
        <path class="cls-2" d="M333.29,137.87c-15.27,17.55-37.75,28.67-62.84,28.67s-47.57-11.11-62.84-28.67c-16.72,16.33-27.11,39.11-27.11,64.33,0,49.68,40.27,89.94,89.94,89.94s89.95-40.27,89.95-89.94c0-25.22-10.39-48-27.11-64.33ZM270.46,237.85c-19.66,0-35.65-15.99-35.65-35.65s15.99-35.65,35.65-35.65,35.65,15.99,35.65,35.65-15.99,35.65-35.65,35.65Z"/>
        <path class="cls-1" d="M270.46,166.54c25.09,0,47.57-11.11,62.84-28.66-16.21-15.84-38.38-25.62-62.84-25.62s-46.62,9.77-62.84,25.62c15.27,17.55,37.75,28.66,62.84,28.66Z"/>
        <path class="cls-2" d="M177.64,290.13h-79l-32.22-43.52s-17.44-25.02-66.41-25.02h65.3c18.72,0,36.36-4.72,51.81-12.99v-.04s.05-.02.09-.04c-18.74-25.28-47.99-40.55-79.33-41.59-1.11-.04-2.24-.05-3.35-.05h30.85c30.44,0,55.18-24.75,55.18-55.19s-24.75-55.2-55.18-55.2H20.58V1.78h44.8c60.6,0,109.9,49.3,109.9,109.91,0,41.84-23.51,78.31-58.03,96.86l60.4,81.57Z"/>
        <path class="cls-1" d="M117.2,208.52s-.05.02-.09.04v.04c-15.45,8.27-33.1,12.99-51.81,12.99H0v-54.71h34.52c1.11,0,2.24.02,3.35.05,31.35,1.04,60.6,16.31,79.33,41.59Z"/>
      </g>
    </g>
  </g>
</svg>